NotoSansPsalterPahlavi-Regular.ufo
<glyph name="uni0640" format="2">
  <advance width="291"/>
  <unicode hex="0640"/>
  <outline>
    <contour>
      <point x="-16" y="0" type="curve" smooth="yes"/>
      <point x="306" y="0" type="line" smooth="yes"/>
      <point x="321" y="0"/>
      <point x="330" y="21"/>
      <point x="330" y="42" type="curve" smooth="yes"/>
      <point x="330" y="63"/>
      <point x="322" y="84"/>
      <point x="306" y="84" type="curve" smooth="yes"/>
      <point x="-16" y="84" type="line" smooth="yes"/>
      <point x="-32" y="84"/>
      <point x="-39" y="63"/>
      <point x="-39" y="42" type="curve" smooth="yes"/>
      <point x="-39" y="21"/>
      <point x="-31" y="0"/>
    </contour>
  </outline>
</glyph>
<glyph name="u10B80" format="2">
  <advance width="643"/>
  <unicode hex="10B80"/>
  <outline>
    <contour>
      <point x="340" y="-19" type="curve" smooth="yes"/>
      <point x="425" y="-19"/>
      <point x="462" y="16"/>
      <point x="482" y="39" type="curve"/>
      <point x="495" y="9"/>
      <point x="515" y="-4"/>
      <point x="534" y="-4" type="curve" smooth="yes"/>
      <point x="572" y="-4"/>
      <point x="584" y="16"/>
      <point x="584" y="52" type="curve" smooth="yes"/>
      <point x="584" y="62"/>
      <point x="581" y="70"/>
      <point x="576" y="80" type="curve" smooth="yes"/>
      <point x="568" y="97"/>
      <point x="559" y="120"/>
      <point x="556" y="166" type="curve" smooth="yes"/>
      <point x="555" y="181"/>
      <point x="555" y="195"/>
      <point x="554" y="208" type="curve" smooth="yes"/>
      <point x="550" y="264"/>
      <point x="550" y="310"/>
      <point x="550" y="372" type="curve" smooth="yes"/>
      <point x="550" y="404"/>
      <point x="535" y="415"/>
      <point x="504" y="415" type="curve" smooth="yes"/>
      <point x="476" y="415"/>
      <point x="462" y="403"/>
      <point x="462" y="368" type="curve" smooth="yes"/>
      <point x="462" y="330"/>
      <point x="464" y="299"/>
      <point x="466" y="270" type="curve" smooth="yes"/>
      <point x="468" y="241"/>
      <point x="470" y="212"/>
      <point x="470" y="179" type="curve" smooth="yes"/>
      <point x="470" y="124"/>
      <point x="451" y="65"/>
      <point x="349" y="65" type="curve" smooth="yes"/>
      <point x="254" y="65"/>
      <point x="244" y="123"/>
      <point x="241" y="176" type="curve" smooth="yes"/>
      <point x="239" y="219"/>
      <point x="238" y="242"/>
      <point x="238" y="270" type="curve" smooth="yes"/>
      <point x="238" y="291"/>
      <point x="237" y="313"/>
      <point x="236" y="346" type="curve" smooth="yes"/>
      <point x="236" y="361"/>
      <point x="215" y="378"/>
      <point x="193" y="378" type="curve" smooth="yes"/>
      <point x="171" y="378"/>
      <point x="149" y="369"/>
      <point x="149" y="346" type="curve" smooth="yes"/>
      <point x="149" y="308"/>
      <point x="150" y="284"/>
      <point x="152" y="260" type="curve" smooth="yes"/>
      <point x="154" y="237"/>
      <point x="155" y="213"/>
      <point x="155" y="177" type="curve" smooth="yes"/>
      <point x="155" y="107"/>
      <point x="112" y="84"/>
      <point x="48" y="84" type="curve" smooth="yes"/>
      <point x="32" y="84"/>
      <point x="24" y="63"/>
      <point x="24" y="42" type="curve" smooth="yes"/>
      <point x="24" y="21"/>
      <point x="33" y="0"/>
      <point x="48" y="0" type="curve" smooth="yes"/>
      <point x="125" y="0"/>
      <point x="170" y="24"/>
      <point x="208" y="70" type="curve"/>
      <point x="180" y="71" type="line"/>
      <point x="206" y="24"/>
      <point x="251" y="-19"/>
    </contour>
  </outline>
</glyph>
<glyph name="u10B81" format="2">
  <advance width="849"/>
  <unicode hex="10B81"/>
  <outline>
    <contour>
      <point x="214" y="-171" type="curve" smooth="yes"/>
      <point x="576" y="-171"/>
      <point x="775" y="-30"/>
      <point x="775" y="299" type="curve" smooth="yes"/>
      <point x="775" y="371"/>
      <point x="763" y="535"/>
      <point x="761" y="552" type="curve" smooth="yes"/>
      <point x="759" y="568"/>
      <point x="744" y="576"/>
      <point x="721" y="576" type="curve" smooth="yes"/>
      <point x="687" y="576"/>
      <point x="671" y="566"/>
      <point x="671" y="527" type="curve" smooth="yes"/>
      <point x="671" y="488"/>
      <point x="676" y="446"/>
      <point x="680" y="405" type="curve" smooth="yes"/>
      <point x="684" y="368"/>
      <point x="688" y="332"/>
      <point x="688" y="302" type="curve" smooth="yes"/>
      <point x="688" y="34"/>
      <point x="532" y="-87"/>
      <point x="216" y="-87" type="curve" smooth="yes"/>
      <point x="43" y="-87"/>
      <point x="-51" y="-72"/>
      <point x="-106" y="-63" type="curve" smooth="yes"/>
      <point x="-129" y="-59"/>
      <point x="-146" y="-57"/>
      <point x="-158" y="-57" type="curve" smooth="yes"/>
      <point x="-188" y="-57"/>
      <point x="-195" y="-78"/>
      <point x="-195" y="-98" type="curve" smooth="yes"/>
      <point x="-195" y="-120"/>
      <point x="-188" y="-140"/>
      <point x="-159" y="-143" type="curve" smooth="yes"/>
      <point x="-151" y="-144"/>
      <point x="-141" y="-146"/>
      <point x="-128" y="-148" type="curve" smooth="yes"/>
      <point x="-78" y="-157"/>
      <point x="18" y="-171"/>
    </contour>
  </outline>
</glyph>
<glyph name="u10B82" format="2">
  <advance width="449"/>
  <unicode hex="10B82"/>
  <outline>
    <contour>
      <point x="167" y="-12" type="curve" smooth="yes"/>
      <point x="277" y="-12"/>
      <point x="375" y="17"/>
      <point x="375" y="137" type="curve" smooth="yes"/>
      <point x="375" y="142"/>
      <point x="375" y="146"/>
      <point x="375" y="150" type="curve" smooth="yes"/>
      <point x="369" y="205"/>
      <point x="362" y="266"/>
      <point x="355" y="317" type="curve" smooth="yes"/>
      <point x="347" y="375"/>
      <point x="342" y="423"/>
      <point x="341" y="436" type="curve" smooth="yes"/>
      <point x="340" y="452"/>
      <point x="319" y="459"/>
      <point x="298" y="459" type="curve" smooth="yes"/>
      <point x="275" y="459"/>
      <point x="253" y="451"/>
      <point x="253" y="436" type="curve" smooth="yes"/>
      <point x="253" y="428"/>
      <point x="257" y="396"/>
      <point x="263" y="354" type="curve" smooth="yes"/>
      <point x="272" y="292"/>
      <point x="284" y="209"/>
      <point x="287" y="157" type="curve"/>
      <point x="287" y="81"/>
      <point x="237" y="72"/>
      <point x="177" y="72" type="curve" smooth="yes"/>
      <point x="143" y="72"/>
      <point x="127" y="74"/>
      <point x="104" y="79" type="curve" smooth="yes"/>
      <point x="89" y="82"/>
      <point x="77" y="84"/>
      <point x="63" y="84" type="curve" smooth="yes"/>
      <point x="46" y="84"/>
      <point x="39" y="63"/>
      <point x="39" y="42" type="curve" smooth="yes"/>
      <point x="39" y="21"/>
      <point x="48" y="5"/>
      <point x="63" y="0" type="curve" smooth="yes"/>
      <point x="78" y="-5"/>
      <point x="129" y="-12"/>
    </contour>
  </outline>
</glyph>
<glyph name="u10B83" format="2">
  <advance width="707"/>
  <unicode hex="10B83"/>
  <outline>
    <contour>
      <point x="169" y="-171" type="curve" smooth="yes"/>
      <point x="464" y="-171"/>
      <point x="633" y="20"/>
      <point x="633" y="203" type="curve" smooth="yes"/>
      <point x="633" y="233" type="line" smooth="yes"/>
      <point x="633" y="374"/>
      <point x="568" y="449"/>
      <point x="479" y="449" type="curve" smooth="yes"/>
      <point x="391" y="449"/>
      <point x="341" y="389"/>
      <point x="341" y="313" type="curve" smooth="yes"/>
      <point x="341" y="229"/>
      <point x="411" y="170"/>
      <point x="545" y="170" type="curve"/>
      <point x="534" y="35"/>
      <point x="406" y="-87"/>
      <point x="167" y="-87" type="curve" smooth="yes"/>
      <point x="73" y="-87"/>
      <point x="23" y="-78"/>
      <point x="-13" y="-68" type="curve" smooth="yes"/>
      <point x="-37" y="-61"/>
      <point x="-60" y="-56"/>
      <point x="-72" y="-56" type="curve" smooth="yes"/>
      <point x="-90" y="-56"/>
      <point x="-98" y="-75"/>
      <point x="-98" y="-96" type="curve" smooth="yes"/>
      <point x="-98" y="-117"/>
      <point x="-89" y="-132"/>
      <point x="-74" y="-136" type="curve" smooth="yes"/>
      <point x="17" y="-161"/>
      <point x="68" y="-171"/>
    </contour>
    <contour>
      <point x="545" y="248" type="curve"/>
      <point x="447" y="248"/>
      <point x="425" y="281"/>
      <point x="425" y="316" type="curve" smooth="yes"/>
      <point x="425" y="349"/>
      <point x="448" y="365"/>
      <point x="470" y="365" type="curve" smooth="yes"/>
      <point x="523" y="365"/>
      <point x="545" y="312"/>
    </contour>
  </outline>
</glyph>
<glyph name="u10B85" format="2">
  <advance width="321"/>
  <unicode hex="10B85"/>
  <outline>
    <contour>
      <point x="230" y="0" type="curve" smooth="yes"/>
      <point x="259" y="0" type="line" smooth="yes"/>
      <point x="274" y="0"/>
      <point x="282" y="21"/>
      <point x="282" y="42" type="curve" smooth="yes"/>
      <point x="282" y="63"/>
      <point x="275" y="84"/>
      <point x="259" y="84" type="curve" smooth="yes"/>
      <point x="233" y="84" type="line" smooth="yes"/>
      <point x="184" y="84"/>
      <point x="171" y="94"/>
      <point x="166" y="154" type="curve" smooth="yes"/>
      <point x="159" y="239"/>
      <point x="158" y="329"/>
      <point x="156" y="417" type="curve" smooth="yes"/>
      <point x="156" y="432"/>
      <point x="134" y="439"/>
      <point x="111" y="439" type="curve" smooth="yes"/>
      <point x="90" y="439"/>
      <point x="68" y="432"/>
      <point x="68" y="417" type="curve" smooth="yes"/>
      <point x="68" y="324"/>
      <point x="73" y="224"/>
      <point x="78" y="131" type="curve" smooth="yes"/>
      <point x="83" y="28"/>
      <point x="132" y="0"/>
    </contour>
  </outline>
</glyph>
<glyph name="u10B86" format="2">
  <advance width="419"/>
  <unicode hex="10B86"/>
  <outline>
    <contour>
      <point x="183" y="0" type="curve" smooth="yes"/>
      <point x="263" y="0"/>
      <point x="360" y="20"/>
      <point x="360" y="63" type="curve" smooth="yes"/>
      <point x="360" y="92"/>
      <point x="331" y="109"/>
      <point x="292" y="125" type="curve" smooth="yes"/>
      <point x="218" y="156"/>
      <point x="146" y="192"/>
      <point x="146" y="269" type="curve" smooth="yes"/>
      <point x="146" y="336"/>
      <point x="193" y="365"/>
      <point x="241" y="365" type="curve" smooth="yes"/>
      <point x="261" y="365"/>
      <point x="274" y="363"/>
      <point x="286" y="360" type="curve" smooth="yes"/>
      <point x="296" y="358"/>
      <point x="307" y="356"/>
      <point x="321" y="356" type="curve" smooth="yes"/>
      <point x="347" y="356"/>
      <point x="360" y="376"/>
      <point x="360" y="398" type="curve" smooth="yes"/>
      <point x="360" y="435"/>
      <point x="304" y="449"/>
      <point x="250" y="449" type="curve" smooth="yes"/>
      <point x="137" y="449"/>
      <point x="59" y="375"/>
      <point x="59" y="269" type="curve" smooth="yes"/>
      <point x="59" y="126"/>
      <point x="210" y="89"/>
      <point x="230" y="87" type="curve"/>
      <point x="213" y="81"/>
      <point x="195" y="78"/>
      <point x="169" y="78" type="curve" smooth="yes"/>
      <point x="143" y="78"/>
      <point x="120" y="83"/>
      <point x="105" y="90" type="curve" smooth="yes"/>
      <point x="95" y="95"/>
      <point x="88" y="98"/>
      <point x="74" y="98" type="curve" smooth="yes"/>
      <point x="55" y="98"/>
      <point x="49" y="81"/>
      <point x="49" y="64" type="curve" smooth="yes"/>
      <point x="49" y="41"/>
      <point x="61" y="26"/>
      <point x="74" y="20" type="curve" smooth="yes"/>
      <point x="93" y="11"/>
      <point x="132" y="0"/>
    </contour>
  </outline>
</glyph>
<glyph name="u10B87" format="2">
  <advance width="751"/>
  <unicode hex="10B87"/>
  <outline>
    <contour>
      <point x="496" y="-41" type="curve" smooth="yes"/>
      <point x="619" y="-41"/>
      <point x="692" y="30"/>
      <point x="692" y="199" type="curve" smooth="yes"/>
      <point x="692" y="367"/>
      <point x="661" y="410"/>
      <point x="616" y="410" type="curve" smooth="yes"/>
      <point x="550" y="410"/>
      <point x="488" y="322"/>
      <point x="488" y="269" type="curve" smooth="yes"/>
      <point x="488" y="252"/>
      <point x="498" y="226"/>
      <point x="521" y="226" type="curve" smooth="yes"/>
      <point x="536" y="226"/>
      <point x="550" y="234"/>
      <point x="561" y="242" type="curve" smooth="yes"/>
      <point x="570" y="249"/>
      <point x="580" y="254"/>
      <point x="589" y="254" type="curve" smooth="yes"/>
      <point x="597" y="254"/>
      <point x="604" y="250"/>
      <point x="604" y="180" type="curve" smooth="yes"/>
      <point x="604" y="80"/>
      <point x="565" y="43"/>
      <point x="496" y="43" type="curve" smooth="yes"/>
      <point x="397" y="43"/>
      <point x="379" y="175"/>
      <point x="370" y="243" type="curve" smooth="yes"/>
      <point x="361" y="310"/>
      <point x="352" y="366"/>
      <point x="341" y="400" type="curve" smooth="yes"/>
      <point x="333" y="426"/>
      <point x="320" y="439"/>
      <point x="297" y="439" type="curve" smooth="yes"/>
      <point x="256" y="439"/>
      <point x="232" y="391"/>
      <point x="155" y="200" type="curve" smooth="yes"/>
      <point x="129" y="136"/>
      <point x="99" y="85"/>
      <point x="53" y="84" type="curve" smooth="yes"/>
      <point x="37" y="84"/>
      <point x="24" y="63"/>
      <point x="24" y="42" type="curve" smooth="yes"/>
      <point x="24" y="21"/>
      <point x="33" y="0"/>
      <point x="48" y="0" type="curve" smooth="yes"/>
      <point x="172" y="0"/>
      <point x="204" y="84"/>
      <point x="237" y="170" type="curve" smooth="yes"/>
      <point x="255" y="216"/>
      <point x="274" y="271"/>
      <point x="293" y="331" type="curve"/>
      <point x="280" y="331" type="line"/>
      <point x="283" y="270"/>
      <point x="290" y="225"/>
      <point x="298" y="175" type="curve" smooth="yes"/>
      <point x="313" y="82"/>
      <point x="358" y="-41"/>
    </contour>
  </outline>
</glyph>
<glyph name="u10B88" format="2">
  <advance width="559"/>
  <unicode hex="10B88"/>
  <outline>
    <contour>
      <point x="102" y="0" type="curve" smooth="yes"/>
      <point x="124" y="0"/>
      <point x="145" y="8"/>
      <point x="146" y="23" type="curve" smooth="yes"/>
      <point x="160" y="197" type="line" smooth="yes"/>
      <point x="169" y="305"/>
      <point x="204" y="352"/>
      <point x="281" y="352" type="curve" smooth="yes"/>
      <point x="356" y="352"/>
      <point x="391" y="298"/>
      <point x="399" y="197" type="curve" smooth="yes"/>
      <point x="413" y="23" type="line" smooth="yes"/>
      <point x="414" y="8"/>
      <point x="435" y="0"/>
      <point x="458" y="0" type="curve" smooth="yes"/>
      <point x="479" y="0"/>
      <point x="500" y="7"/>
      <point x="500" y="21" type="curve" smooth="yes"/>
      <point x="500" y="22"/>
      <point x="500" y="22"/>
      <point x="500" y="23" type="curve" smooth="yes"/>
      <point x="486" y="198" type="line" smooth="yes"/>
      <point x="475" y="339"/>
      <point x="421" y="439"/>
      <point x="282" y="439" type="curve" smooth="yes"/>
      <point x="156" y="439"/>
      <point x="84" y="346"/>
      <point x="72" y="194" type="curve" smooth="yes"/>
      <point x="59" y="23" type="line" smooth="yes"/>
      <point x="59" y="22"/>
      <point x="59" y="22"/>
      <point x="59" y="21" type="curve" smooth="yes"/>
      <point x="59" y="7"/>
      <point x="81" y="0"/>
    </contour>
  </outline>
</glyph>
<glyph name="u10B89" format="2">
  <advance width="800"/>
  <unicode hex="10B89"/>
  <outline>
    <contour>
      <point x="384" y="-239" type="curve" smooth="yes"/>
      <point x="517" y="-239"/>
      <point x="607" y="-233"/>
      <point x="713" y="-226" type="curve" smooth="yes"/>
      <point x="799" y="-220"/>
      <point x="879" y="-215"/>
      <point x="972" y="-215" type="curve" smooth="yes"/>
      <point x="987" y="-215"/>
      <point x="995" y="-194"/>
      <point x="995" y="-173" type="curve" smooth="yes"/>
      <point x="995" y="-152"/>
      <point x="988" y="-137"/>
      <point x="972" y="-136" type="curve" smooth="yes"/>
      <point x="946" y="-134"/>
      <point x="917" y="-133"/>
      <point x="886" y="-133" type="curve" smooth="yes"/>
      <point x="812" y="-133"/>
      <point x="741" y="-138"/>
      <point x="667" y="-144" type="curve" smooth="yes"/>
      <point x="588" y="-150"/>
      <point x="504" y="-155"/>
      <point x="407" y="-155" type="curve" smooth="yes"/>
      <point x="292" y="-155"/>
      <point x="170" y="-152"/>
      <point x="170" y="-92" type="curve" smooth="yes"/>
      <point x="170" y="-50"/>
      <point x="196" y="-20"/>
      <point x="226" y="14" type="curve" smooth="yes"/>
      <point x="263" y="56"/>
      <point x="303" y="107"/>
      <point x="303" y="189" type="curve" smooth="yes"/>
      <point x="303" y="273"/>
      <point x="285" y="376"/>
      <point x="222" y="376" type="curve" smooth="yes"/>
      <point x="155" y="376"/>
      <point x="24" y="216"/>
      <point x="24" y="158" type="curve" smooth="yes"/>
      <point x="24" y="117"/>
      <point x="52" y="93"/>
      <point x="93" y="93" type="curve" smooth="yes"/>
      <point x="140" y="93"/>
      <point x="177" y="98"/>
      <point x="196" y="101" type="curve"/>
      <point x="196" y="91"/>
      <point x="183" y="77"/>
      <point x="165" y="59" type="curve" smooth="yes"/>
      <point x="129" y="23"/>
      <point x="79" y="-29"/>
      <point x="79" y="-104" type="curve" smooth="yes"/>
      <point x="79" y="-238"/>
      <point x="252" y="-239"/>
    </contour>
    <contour>
      <point x="148" y="177" type="curve" smooth="yes"/>
      <point x="135" y="177"/>
      <point x="133" y="188"/>
      <point x="133" y="195" type="curve" smooth="yes"/>
      <point x="133" y="218"/>
      <point x="178" y="265"/>
      <point x="191" y="265" type="curve" smooth="yes"/>
      <point x="203" y="265"/>
      <point x="211" y="252"/>
      <point x="211" y="212" type="curve" smooth="yes"/>
      <point x="211" y="205"/>
      <point x="211" y="202"/>
      <point x="210" y="183" type="curve"/>
      <point x="187" y="178"/>
      <point x="161" y="177"/>
    </contour>
  </outline>
</glyph>
<glyph name="u10B8C" format="2">
  <advance width="576"/>
  <unicode hex="10B8C"/>
  <outline>
    <contour>
      <point x="371" y="-171" type="curve" smooth="yes"/>
      <point x="485" y="-171"/>
      <point x="605" y="-145"/>
      <point x="630" y="-138" type="curve" smooth="yes"/>
      <point x="645" y="-134"/>
      <point x="653" y="-120"/>
      <point x="653" y="-99" type="curve" smooth="yes"/>
      <point x="653" y="-78"/>
      <point x="642" y="-62"/>
      <point x="617" y="-62" type="curve" smooth="yes"/>
      <point x="602" y="-62"/>
      <point x="577" y="-64"/>
      <point x="544" y="-70" type="curve" smooth="yes"/>
      <point x="495" y="-79"/>
      <point x="432" y="-87"/>
      <point x="377" y="-87" type="curve" smooth="yes"/>
      <point x="249" y="-87"/>
      <point x="161" y="-62"/>
      <point x="161" y="28" type="curve" smooth="yes"/>
      <point x="161" y="157"/>
      <point x="165" y="287"/>
      <point x="172" y="416" type="curve"/>
      <point x="172" y="417" type="line"/>
      <point x="172" y="433"/>
      <point x="150" y="439"/>
      <point x="131" y="439" type="curve" smooth="yes"/>
      <point x="107" y="439"/>
      <point x="85" y="430"/>
      <point x="84" y="416" type="curve" smooth="yes"/>
      <point x="75" y="291"/>
      <point x="73" y="161"/>
      <point x="73" y="22" type="curve"/>
      <point x="73" y="-109"/>
      <point x="154" y="-171"/>
    </contour>
  </outline>
</glyph>
<glyph name="u10B8D" format="2">
  <advance width="795"/>
  <unicode hex="10B8D"/>
  <outline>
    <contour>
      <point x="524" y="-12" type="curve" smooth="yes"/>
      <point x="671" y="-12"/>
      <point x="737" y="77"/>
      <point x="737" y="192" type="curve" smooth="yes"/>
      <point x="737" y="313"/>
      <point x="663" y="398"/>
      <point x="533" y="398" type="curve" smooth="yes"/>
      <point x="479" y="398"/>
      <point x="447" y="383"/>
      <point x="447" y="347" type="curve" smooth="yes"/>
      <point x="447" y="325"/>
      <point x="461" y="305"/>
      <point x="486" y="305" type="curve" smooth="yes"/>
      <point x="504" y="305"/>
      <point x="514" y="307"/>
      <point x="523" y="310" type="curve" smooth="yes"/>
      <point x="530" y="313"/>
      <point x="535" y="314"/>
      <point x="542" y="314" type="curve" smooth="yes"/>
      <point x="611" y="314"/>
      <point x="649" y="267"/>
      <point x="649" y="199" type="curve" smooth="yes"/>
      <point x="649" y="121"/>
      <point x="615" y="73"/>
      <point x="531" y="73" type="curve" smooth="yes"/>
      <point x="457" y="73"/>
      <point x="400" y="104"/>
      <point x="371" y="218" type="curve"/>
      <point x="361" y="332"/>
      <point x="288" y="398"/>
      <point x="168" y="398" type="curve" smooth="yes"/>
      <point x="115" y="398"/>
      <point x="83" y="383"/>
      <point x="83" y="347" type="curve" smooth="yes"/>
      <point x="83" y="325"/>
      <point x="97" y="305"/>
      <point x="122" y="305" type="curve" smooth="yes"/>
      <point x="141" y="305"/>
      <point x="151" y="308"/>
      <point x="160" y="311" type="curve" smooth="yes"/>
      <point x="167" y="313"/>
      <point x="171" y="314"/>
      <point x="181" y="314" type="curve" smooth="yes"/>
      <point x="237" y="314"/>
      <point x="285" y="284"/>
      <point x="285" y="202" type="curve" smooth="yes"/>
      <point x="285" y="117"/>
      <point x="204" y="99"/>
      <point x="146" y="91" type="curve" smooth="yes"/>
      <point x="124" y="88"/>
      <point x="84" y="85"/>
      <point x="53" y="84" type="curve" smooth="yes"/>
      <point x="37" y="83"/>
      <point x="24" y="63"/>
      <point x="24" y="42" type="curve" smooth="yes"/>
      <point x="24" y="21"/>
      <point x="33" y="0"/>
      <point x="48" y="0" type="curve" smooth="yes"/>
      <point x="76" y="0"/>
      <point x="110" y="3"/>
      <point x="166" y="9" type="curve" smooth="yes"/>
      <point x="242" y="17"/>
      <point x="298" y="43"/>
      <point x="333" y="82" type="curve"/>
      <point x="362" y="32"/>
      <point x="421" y="-12"/>
    </contour>
  </outline>
</glyph>
<glyph name="u10B8E" format="2">
  <advance width="603"/>
  <unicode hex="10B8E"/>
  <outline>
    <contour>
      <point x="290" y="0" type="curve" smooth="yes"/>
      <point x="442" y="0"/>
      <point x="544" y="82"/>
      <point x="544" y="223" type="curve" smooth="yes"/>
      <point x="544" y="326"/>
      <point x="482" y="439"/>
      <point x="315" y="439" type="curve" smooth="yes"/>
      <point x="173" y="439"/>
      <point x="86" y="357"/>
      <point x="86" y="210" type="curve" smooth="yes"/>
      <point x="86" y="159"/>
      <point x="101" y="115"/>
      <point x="122" y="68" type="curve"/>
      <point x="136" y="89" type="line"/>
      <point x="113" y="94"/>
      <point x="84" y="100"/>
      <point x="63" y="100" type="curve" smooth="yes"/>
      <point x="46" y="100"/>
      <point x="39" y="75"/>
      <point x="39" y="55" type="curve" smooth="yes"/>
      <point x="39" y="33"/>
      <point x="48" y="14"/>
      <point x="63" y="12" type="curve" smooth="yes"/>
      <point x="84" y="9"/>
      <point x="148" y="0"/>
    </contour>
    <contour>
      <point x="284" y="84" type="curve" smooth="yes"/>
      <point x="251" y="84"/>
      <point x="224" y="84"/>
      <point x="202" y="85" type="curve"/>
      <point x="185" y="131"/>
      <point x="175" y="177"/>
      <point x="175" y="205" type="curve" smooth="yes"/>
      <point x="175" y="305"/>
      <point x="231" y="355"/>
      <point x="321" y="355" type="curve" smooth="yes"/>
      <point x="418" y="355"/>
      <point x="455" y="295"/>
      <point x="455" y="218" type="curve" smooth="yes"/>
      <point x="455" y="120"/>
      <point x="386" y="84"/>
    </contour>
  </outline>
</glyph>
<glyph name="u10B8F" format="2">
  <advance width="645"/>
  <unicode hex="10B8F"/>
  <outline>
    <contour>
      <point x="320" y="-190" type="curve" smooth="yes"/>
      <point x="449" y="-190"/>
      <point x="575" y="-160"/>
      <point x="600" y="-153" type="curve" smooth="yes"/>
      <point x="615" y="-149"/>
      <point x="623" y="-135"/>
      <point x="623" y="-114" type="curve" smooth="yes"/>
      <point x="623" y="-93"/>
      <point x="611" y="-80"/>
      <point x="588" y="-80" type="curve" smooth="yes"/>
      <point x="567" y="-80"/>
      <point x="546" y="-83"/>
      <point x="521" y="-88" type="curve" smooth="yes"/>
      <point x="480" y="-97"/>
      <point x="427" y="-106"/>
      <point x="339" y="-106" type="curve" smooth="yes"/>
      <point x="180" y="-106"/>
      <point x="134" y="-68"/>
      <point x="134" y="48" type="curve" smooth="yes"/>
      <point x="134" y="70"/>
      <point x="136" y="98"/>
      <point x="139" y="125" type="curve" smooth="yes"/>
      <point x="161" y="314" type="line"/>
      <point x="153" y="314" type="line"/>
      <point x="160" y="264"/>
      <point x="175" y="203"/>
      <point x="184" y="168" type="curve" smooth="yes"/>
      <point x="208" y="73"/>
      <point x="249" y="-2"/>
      <point x="369" y="-2" type="curve" smooth="yes"/>
      <point x="525" y="-2"/>
      <point x="576" y="74"/>
      <point x="576" y="217" type="curve" smooth="yes"/>
      <point x="576" y="380"/>
      <point x="542" y="420"/>
      <point x="500" y="420" type="curve" smooth="yes"/>
      <point x="434" y="420"/>
      <point x="372" y="332"/>
      <point x="372" y="278" type="curve" smooth="yes"/>
      <point x="372" y="262"/>
      <point x="381" y="236"/>
      <point x="404" y="236" type="curve" smooth="yes"/>
      <point x="419" y="236"/>
      <point x="432" y="243"/>
      <point x="444" y="251" type="curve" smooth="yes"/>
      <point x="454" y="258"/>
      <point x="463" y="264"/>
      <point x="473" y="264" type="curve" smooth="yes"/>
      <point x="480" y="264"/>
      <point x="488" y="260"/>
      <point x="488" y="192" type="curve" smooth="yes"/>
      <point x="488" y="125"/>
      <point x="464" y="83"/>
      <point x="377" y="83" type="curve" smooth="yes"/>
      <point x="299" y="83"/>
      <point x="284" y="128"/>
      <point x="255" y="236" type="curve" smooth="yes"/>
      <point x="207" y="414"/>
      <point x="192" y="439"/>
      <point x="153" y="439" type="curve" smooth="yes"/>
      <point x="115" y="439"/>
      <point x="92" y="394"/>
      <point x="71" y="237" type="curve" smooth="yes"/>
      <point x="55" y="119" type="line" smooth="yes"/>
      <point x="52" y="96"/>
      <point x="49" y="57"/>
      <point x="49" y="29" type="curve" smooth="yes"/>
      <point x="49" y="-137"/>
      <point x="146" y="-190"/>
    </contour>
  </outline>
</glyph>
<glyph name="u10B90" format="2">
  <advance width="1058"/>
  <unicode hex="10B90"/>
  <outline>
    <contour>
      <point x="888" y="-13" type="curve" smooth="yes"/>
      <point x="948" y="-13"/>
      <point x="1000" y="14"/>
      <point x="1010" y="20" type="curve" smooth="yes"/>
      <point x="1022" y="27"/>
      <point x="1034" y="36"/>
      <point x="1034" y="62" type="curve" smooth="yes"/>
      <point x="1034" y="83"/>
      <point x="1026" y="104"/>
      <point x="1010" y="104" type="curve" smooth="yes"/>
      <point x="1006" y="104"/>
      <point x="999" y="101"/>
      <point x="988" y="96" type="curve" smooth="yes"/>
      <point x="965" y="86"/>
      <point x="925" y="71"/>
      <point x="882" y="71" type="curve" smooth="yes"/>
      <point x="830" y="71"/>
      <point x="798" y="86"/>
      <point x="775" y="189" type="curve"/>
      <point x="768" y="248"/>
      <point x="747" y="323"/>
      <point x="727" y="380" type="curve" smooth="yes"/>
      <point x="709" y="431"/>
      <point x="671" y="469"/>
      <point x="623" y="469" type="curve" smooth="yes"/>
      <point x="559" y="469"/>
      <point x="471" y="385"/>
      <point x="471" y="349" type="curve" smooth="yes"/>
      <point x="471" y="327"/>
      <point x="485" y="316"/>
      <point x="510" y="316" type="curve" smooth="yes"/>
      <point x="526" y="316"/>
      <point x="545" y="334"/>
      <point x="563" y="351" type="curve" smooth="yes"/>
      <point x="583" y="369"/>
      <point x="601" y="385"/>
      <point x="617" y="385" type="curve" smooth="yes"/>
      <point x="639" y="385"/>
      <point x="651" y="357"/>
      <point x="659" y="333" type="curve" smooth="yes"/>
      <point x="683" y="260"/>
      <point x="691" y="211"/>
      <point x="691" y="158" type="curve" smooth="yes"/>
      <point x="691" y="102"/>
      <point x="646" y="71"/>
      <point x="544" y="71" type="curve" smooth="yes"/>
      <point x="474" y="71"/>
      <point x="421" y="81"/>
      <point x="377" y="99" type="curve"/>
      <point x="384" y="115"/>
      <point x="387" y="134"/>
      <point x="387" y="154" type="curve" smooth="yes"/>
      <point x="387" y="214"/>
      <point x="359" y="310"/>
      <point x="334" y="380" type="curve" smooth="yes"/>
      <point x="316" y="431"/>
      <point x="279" y="469"/>
      <point x="230" y="469" type="curve" smooth="yes"/>
      <point x="166" y="469"/>
      <point x="79" y="385"/>
      <point x="79" y="349" type="curve" smooth="yes"/>
      <point x="79" y="327"/>
      <point x="92" y="316"/>
      <point x="118" y="316" type="curve" smooth="yes"/>
      <point x="133" y="316"/>
      <point x="152" y="333"/>
      <point x="170" y="350" type="curve" smooth="yes"/>
      <point x="189" y="368"/>
      <point x="208" y="385"/>
      <point x="225" y="385" type="curve" smooth="yes"/>
      <point x="246" y="385"/>
      <point x="258" y="357"/>
      <point x="266" y="333" type="curve" smooth="yes"/>
      <point x="290" y="260"/>
      <point x="299" y="211"/>
      <point x="299" y="158" type="curve" smooth="yes"/>
      <point x="299" y="86"/>
      <point x="236" y="76"/>
      <point x="164" y="76" type="curve" smooth="yes"/>
      <point x="125" y="76"/>
      <point x="104" y="79"/>
      <point x="87" y="82" type="curve" smooth="yes"/>
      <point x="77" y="84"/>
      <point x="68" y="84"/>
      <point x="59" y="84" type="curve" smooth="yes"/>
      <point x="36" y="84"/>
      <point x="24" y="67"/>
      <point x="24" y="42" type="curve" smooth="yes"/>
      <point x="24" y="25"/>
      <point x="34" y="2"/>
      <point x="55" y="0" type="curve" smooth="yes"/>
      <point x="64" y="-1"/>
      <point x="69" y="-1"/>
      <point x="86" y="-3" type="curve" smooth="yes"/>
      <point x="109" y="-6"/>
      <point x="137" y="-8"/>
      <point x="165" y="-8" type="curve" smooth="yes"/>
      <point x="233" y="-8"/>
      <point x="286" y="5"/>
      <point x="322" y="29" type="curve"/>
      <point x="379" y="1"/>
      <point x="465" y="-12"/>
      <point x="538" y="-12" type="curve" smooth="yes"/>
      <point x="638" y="-12"/>
      <point x="711" y="16"/>
      <point x="749" y="80" type="curve"/>
      <point x="722" y="87" type="line"/>
      <point x="753" y="9"/>
      <point x="805" y="-13"/>
    </contour>
  </outline>
</glyph>
<glyph name="u10B99" format="2">
  <advance width="490"/>
  <unicode hex="10B99"/>
  <outline>
    <contour>
      <point x="245" y="367" type="curve" smooth="yes"/>
      <point x="302" y="367"/>
      <point x="349" y="413"/>
      <point x="349" y="469" type="curve" smooth="yes"/>
      <point x="349" y="526"/>
      <point x="302" y="572"/>
      <point x="245" y="572" type="curve" smooth="yes"/>
      <point x="189" y="572"/>
      <point x="143" y="526"/>
      <point x="143" y="469" type="curve" smooth="yes"/>
      <point x="143" y="413"/>
      <point x="189" y="367"/>
    </contour>
    <contour>
      <point x="245" y="-24" type="curve" smooth="yes"/>
      <point x="302" y="-24"/>
      <point x="349" y="22"/>
      <point x="349" y="78" type="curve" smooth="yes"/>
      <point x="349" y="135"/>
      <point x="302" y="181"/>
      <point x="245" y="181" type="curve" smooth="yes"/>
      <point x="189" y="181"/>
      <point x="143" y="135"/>
      <point x="143" y="78" type="curve" smooth="yes"/>
      <point x="143" y="22"/>
      <point x="189" y="-24"/>
    </contour>
    <contour>
      <point x="245" y="12" type="curve" smooth="yes"/>
      <point x="209" y="12"/>
      <point x="180" y="42"/>
      <point x="180" y="78" type="curve" smooth="yes"/>
      <point x="180" y="115"/>
      <point x="209" y="144"/>
      <point x="245" y="144" type="curve" smooth="yes"/>
      <point x="282" y="144"/>
      <point x="312" y="115"/>
      <point x="312" y="78" type="curve" smooth="yes"/>
      <point x="312" y="42"/>
      <point x="282" y="12"/>
    </contour>
    <contour>
      <point x="110" y="206" type="curve" smooth="yes"/>
      <point x="145" y="206"/>
      <point x="173" y="234"/>
      <point x="173" y="268" type="curve" smooth="yes"/>
      <point x="173" y="302"/>
      <point x="145" y="330"/>
      <point x="110" y="330" type="curve" smooth="yes"/>
      <point x="77" y="330"/>
      <point x="49" y="302"/>
      <point x="49" y="268" type="curve" smooth="yes"/>
      <point x="49" y="234"/>
      <point x="77" y="206"/>
    </contour>
    <contour>
      <point x="379" y="206" type="curve" smooth="yes"/>
      <point x="414" y="206"/>
      <point x="441" y="234"/>
      <point x="441" y="268" type="curve" smooth="yes"/>
      <point x="441" y="302"/>
      <point x="414" y="330"/>
      <point x="379" y="330" type="curve" smooth="yes"/>
      <point x="345" y="330"/>
      <point x="317" y="302"/>
      <point x="317" y="268" type="curve" smooth="yes"/>
      <point x="317" y="234"/>
      <point x="345" y="206"/>
    </contour>
    <contour>
      <point x="245" y="403" type="curve" smooth="yes"/>
      <point x="209" y="403"/>
      <point x="180" y="433"/>
      <point x="180" y="469" type="curve" smooth="yes"/>
      <point x="180" y="506"/>
      <point x="209" y="535"/>
      <point x="245" y="535" type="curve" smooth="yes"/>
      <point x="282" y="535"/>
      <point x="312" y="506"/>
      <point x="312" y="469" type="curve" smooth="yes"/>
      <point x="312" y="433"/>
      <point x="282" y="403"/>
    </contour>
  </outline>
</glyph>
<glyph name="u10B9A" format="2">
  <advance width="564"/>
  <unicode hex="10B9A"/>
  <outline>
    <contour>
      <point x="282" y="381" type="curve" smooth="yes"/>
      <point x="335" y="381"/>
      <point x="378" y="424"/>
      <point x="378" y="476" type="curve" smooth="yes"/>
      <point x="378" y="529"/>
      <point x="335" y="572"/>
      <point x="282" y="572" type="curve" smooth="yes"/>
      <point x="230" y="572"/>
      <point x="187" y="529"/>
      <point x="187" y="476" type="curve" smooth="yes"/>
      <point x="187" y="424"/>
      <point x="230" y="381"/>
    </contour>
    <contour>
      <point x="282" y="-24" type="curve" smooth="yes"/>
      <point x="335" y="-24"/>
      <point x="378" y="19"/>
      <point x="378" y="71" type="curve" smooth="yes"/>
      <point x="378" y="124"/>
      <point x="335" y="167"/>
      <point x="282" y="167" type="curve" smooth="yes"/>
      <point x="230" y="167"/>
      <point x="187" y="124"/>
      <point x="187" y="71" type="curve" smooth="yes"/>
      <point x="187" y="19"/>
      <point x="230" y="-24"/>
    </contour>
    <contour>
      <point x="133" y="183" type="curve" smooth="yes"/>
      <point x="180" y="183"/>
      <point x="219" y="222"/>
      <point x="219" y="268" type="curve" smooth="yes"/>
      <point x="219" y="314"/>
      <point x="180" y="353"/>
      <point x="133" y="353" type="curve" smooth="yes"/>
      <point x="87" y="353"/>
      <point x="49" y="314"/>
      <point x="49" y="268" type="curve" smooth="yes"/>
      <point x="49" y="222"/>
      <point x="87" y="183"/>
    </contour>
    <contour>
      <point x="133" y="217" type="curve" smooth="yes"/>
      <point x="105" y="217"/>
      <point x="83" y="240"/>
      <point x="83" y="268" type="curve" smooth="yes"/>
      <point x="83" y="296"/>
      <point x="105" y="319"/>
      <point x="133" y="319" type="curve" smooth="yes"/>
      <point x="162" y="319"/>
      <point x="185" y="296"/>
      <point x="185" y="268" type="curve" smooth="yes"/>
      <point x="185" y="240"/>
      <point x="162" y="217"/>
    </contour>
    <contour>
      <point x="430" y="183" type="curve" smooth="yes"/>
      <point x="477" y="183"/>
      <point x="516" y="222"/>
      <point x="516" y="268" type="curve" smooth="yes"/>
      <point x="516" y="314"/>
      <point x="477" y="353"/>
      <point x="430" y="353" type="curve" smooth="yes"/>
      <point x="384" y="353"/>
      <point x="346" y="314"/>
      <point x="346" y="268" type="curve" smooth="yes"/>
      <point x="346" y="222"/>
      <point x="384" y="183"/>
    </contour>
    <contour>
      <point x="430" y="217" type="curve" smooth="yes"/>
      <point x="402" y="217"/>
      <point x="379" y="240"/>
      <point x="379" y="268" type="curve" smooth="yes"/>
      <point x="379" y="296"/>
      <point x="402" y="319"/>
      <point x="430" y="319" type="curve" smooth="yes"/>
      <point x="458" y="319"/>
      <point x="481" y="296"/>
      <point x="481" y="268" type="curve" smooth="yes"/>
      <point x="481" y="240"/>
      <point x="458" y="217"/>
    </contour>
  </outline>
</glyph>
<glyph name="u10B9C" format="2">
  <advance width="695"/>
  <unicode hex="10B9C"/>
  <outline>
    <contour>
      <point x="543" y="171" type="curve" smooth="yes"/>
      <point x="600" y="171"/>
      <point x="646" y="218"/>
      <point x="646" y="273" type="curve" smooth="yes"/>
      <point x="646" y="331"/>
      <point x="600" y="377"/>
      <point x="543" y="377" type="curve" smooth="yes"/>
      <point x="487" y="377"/>
      <point x="441" y="331"/>
      <point x="441" y="273" type="curve" smooth="yes"/>
      <point x="441" y="218"/>
      <point x="487" y="171"/>
    </contour>
    <contour>
      <point x="151" y="171" type="curve" smooth="yes"/>
      <point x="208" y="171"/>
      <point x="254" y="218"/>
      <point x="254" y="273" type="curve" smooth="yes"/>
      <point x="254" y="331"/>
      <point x="208" y="377"/>
      <point x="151" y="377" type="curve" smooth="yes"/>
      <point x="95" y="377"/>
      <point x="49" y="331"/>
      <point x="49" y="273" type="curve" smooth="yes"/>
      <point x="49" y="218"/>
      <point x="95" y="171"/>
    </contour>
    <contour>
      <point x="151" y="208" type="curve" smooth="yes"/>
      <point x="115" y="208"/>
      <point x="85" y="238"/>
      <point x="85" y="273" type="curve" smooth="yes"/>
      <point x="85" y="311"/>
      <point x="115" y="340"/>
      <point x="151" y="340" type="curve" smooth="yes"/>
      <point x="188" y="340"/>
      <point x="217" y="311"/>
      <point x="217" y="273" type="curve" smooth="yes"/>
      <point x="217" y="238"/>
      <point x="188" y="208"/>
    </contour>
    <contour>
      <point x="348" y="-24" type="curve" smooth="yes"/>
      <point x="405" y="-24"/>
      <point x="451" y="22"/>
      <point x="451" y="78" type="curve" smooth="yes"/>
      <point x="451" y="135"/>
      <point x="405" y="181"/>
      <point x="348" y="181" type="curve" smooth="yes"/>
      <point x="292" y="181"/>
      <point x="246" y="135"/>
      <point x="246" y="78" type="curve" smooth="yes"/>
      <point x="246" y="22"/>
      <point x="292" y="-24"/>
    </contour>
    <contour>
      <point x="348" y="12" type="curve" smooth="yes"/>
      <point x="312" y="12"/>
      <point x="282" y="42"/>
      <point x="282" y="78" type="curve" smooth="yes"/>
      <point x="282" y="115"/>
      <point x="312" y="144"/>
      <point x="348" y="144" type="curve" smooth="yes"/>
      <point x="384" y="144"/>
      <point x="414" y="115"/>
      <point x="414" y="78" type="curve" smooth="yes"/>
      <point x="414" y="42"/>
      <point x="384" y="12"/>
    </contour>
    <contour>
      <point x="347" y="226" type="curve" smooth="yes"/>
      <point x="375" y="226"/>
      <point x="396" y="247"/>
      <point x="396" y="273" type="curve" smooth="yes"/>
      <point x="396" y="301"/>
      <point x="375" y="322"/>
      <point x="347" y="322" type="curve" smooth="yes"/>
      <point x="321" y="322"/>
      <point x="299" y="301"/>
      <point x="299" y="273" type="curve" smooth="yes"/>
      <point x="299" y="247"/>
      <point x="321" y="226"/>
    </contour>
    <contour>
      <point x="543" y="208" type="curve" smooth="yes"/>
      <point x="507" y="208"/>
      <point x="478" y="238"/>
      <point x="478" y="273" type="curve" smooth="yes"/>
      <point x="478" y="311"/>
      <point x="507" y="340"/>
      <point x="543" y="340" type="curve" smooth="yes"/>
      <point x="580" y="340"/>
      <point x="609" y="311"/>
      <point x="609" y="273" type="curve" smooth="yes"/>
      <point x="609" y="238"/>
      <point x="580" y="208"/>
    </contour>
    <contour>
      <point x="348" y="367" type="curve" smooth="yes"/>
      <point x="405" y="367"/>
      <point x="451" y="413"/>
      <point x="451" y="469" type="curve" smooth="yes"/>
      <point x="451" y="526"/>
      <point x="405" y="572"/>
      <point x="348" y="572" type="curve" smooth="yes"/>
      <point x="292" y="572"/>
      <point x="246" y="526"/>
      <point x="246" y="469" type="curve" smooth="yes"/>
      <point x="246" y="413"/>
      <point x="292" y="367"/>
    </contour>
    <contour>
      <point x="348" y="403" type="curve" smooth="yes"/>
      <point x="312" y="403"/>
      <point x="282" y="433"/>
      <point x="282" y="469" type="curve" smooth="yes"/>
      <point x="282" y="506"/>
      <point x="312" y="535"/>
      <point x="348" y="535" type="curve" smooth="yes"/>
      <point x="384" y="535"/>
      <point x="414" y="506"/>
      <point x="414" y="469" type="curve" smooth="yes"/>
      <point x="414" y="433"/>
      <point x="384" y="403"/>
    </contour>
  </outline>
</glyph>
<glyph name="u10BA9" format="2">
  <advance width="340"/>
  <unicode hex="10BA9"/>
  <outline>
    <contour>
      <point x="47" y="0" type="curve" smooth="yes"/>
      <point x="65" y="0" type="line" smooth="yes"/>
      <point x="173" y="0"/>
      <point x="229" y="60"/>
      <point x="246" y="160" type="curve" smooth="yes"/>
      <point x="289" y="406" type="line" smooth="yes"/>
      <point x="290" y="411"/>
      <point x="291" y="417"/>
      <point x="291" y="419" type="curve" smooth="yes"/>
      <point x="291" y="431"/>
      <point x="271" y="439"/>
      <point x="249" y="439" type="curve" smooth="yes"/>
      <point x="229" y="439"/>
      <point x="206" y="433"/>
      <point x="203" y="416" type="curve" smooth="yes"/>
      <point x="157" y="157" type="line" smooth="yes"/>
      <point x="147" y="101"/>
      <point x="122" y="84"/>
      <point x="77" y="84" type="curve" smooth="yes"/>
      <point x="57" y="84" type="line" smooth="yes"/>
      <point x="34" y="84"/>
      <point x="24" y="55"/>
      <point x="24" y="35" type="curve" smooth="yes"/>
      <point x="24" y="13"/>
      <point x="35" y="0"/>
    </contour>
  </outline>
</glyph>
<glyph name="u10BAB" format="2">
  <advance width="910"/>
  <unicode hex="10BAB"/>
  <outline>
    <contour>
      <point x="90" y="-220" type="curve" smooth="yes"/>
      <point x="112" y="-220"/>
      <point x="134" y="-212"/>
      <point x="137" y="-197" type="curve" smooth="yes"/>
      <point x="172" y="0" type="line"/>
      <point x="635" y="0" type="line" smooth="yes"/>
      <point x="743" y="0"/>
      <point x="797" y="60"/>
      <point x="815" y="160" type="curve" smooth="yes"/>
      <point x="860" y="411" type="line" smooth="yes"/>
      <point x="861" y="413"/>
      <point x="861" y="416"/>
      <point x="861" y="418" type="curve" smooth="yes"/>
      <point x="861" y="431"/>
      <point x="840" y="439"/>
      <point x="818" y="439" type="curve" smooth="yes"/>
      <point x="798" y="439"/>
      <point x="776" y="433"/>
      <point x="773" y="416" type="curve" smooth="yes"/>
      <point x="727" y="157" type="line" smooth="yes"/>
      <point x="717" y="101"/>
      <point x="692" y="84"/>
      <point x="647" y="84" type="curve" smooth="yes"/>
      <point x="482" y="84" type="line"/>
      <point x="494" y="105"/>
      <point x="503" y="131"/>
      <point x="508" y="160" type="curve" smooth="yes"/>
      <point x="553" y="411" type="line" smooth="yes"/>
      <point x="554" y="416"/>
      <point x="554" y="417"/>
      <point x="554" y="418" type="curve" smooth="yes"/>
      <point x="554" y="431"/>
      <point x="533" y="439"/>
      <point x="511" y="439" type="curve" smooth="yes"/>
      <point x="491" y="439"/>
      <point x="468" y="433"/>
      <point x="465" y="416" type="curve" smooth="yes"/>
      <point x="419" y="157" type="line" smooth="yes"/>
      <point x="409" y="101"/>
      <point x="384" y="84"/>
      <point x="339" y="84" type="curve" smooth="yes"/>
      <point x="187" y="84" type="line"/>
      <point x="244" y="406" type="line" smooth="yes"/>
      <point x="245" y="411"/>
      <point x="246" y="417"/>
      <point x="246" y="419" type="curve" smooth="yes"/>
      <point x="246" y="433"/>
      <point x="227" y="439"/>
      <point x="207" y="439" type="curve" smooth="yes"/>
      <point x="184" y="439"/>
      <point x="161" y="433"/>
      <point x="158" y="417" type="curve" smooth="yes"/>
      <point x="50" y="-192" type="line" smooth="yes"/>
      <point x="49" y="-195"/>
      <point x="49" y="-198"/>
      <point x="49" y="-199" type="curve" smooth="yes"/>
      <point x="49" y="-213"/>
      <point x="69" y="-220"/>
    </contour>
  </outline>
</glyph>
<glyph name="u10BAF" format="2">
  <advance width="1248"/>
  <unicode hex="10BAF"/>
  <outline>
    <contour>
      <point x="751" y="-195" type="curve" smooth="yes"/>
      <point x="1046" y="-195"/>
      <point x="1174" y="-52"/>
      <point x="1174" y="131" type="curve" smooth="yes"/>
      <point x="1174" y="162" type="line" smooth="yes"/>
      <point x="1174" y="302"/>
      <point x="1109" y="377"/>
      <point x="1020" y="377" type="curve" smooth="yes"/>
      <point x="932" y="377"/>
      <point x="882" y="317"/>
      <point x="882" y="241" type="curve" smooth="yes"/>
      <point x="882" y="157"/>
      <point x="937" y="99"/>
      <point x="1086" y="99" type="curve"/>
      <point x="1075" y="-37"/>
      <point x="988" y="-111"/>
      <point x="749" y="-111" type="curve" smooth="yes"/>
      <point x="634" y="-111"/>
      <point x="577" y="-95"/>
      <point x="546" y="-86" type="curve" smooth="yes"/>
      <point x="530" y="-81"/>
      <point x="515" y="-79"/>
      <point x="508" y="-79" type="curve" smooth="yes"/>
      <point x="492" y="-79"/>
      <point x="484" y="-100"/>
      <point x="484" y="-120" type="curve" smooth="yes"/>
      <point x="484" y="-142"/>
      <point x="494" y="-155"/>
      <point x="508" y="-161" type="curve" smooth="yes"/>
      <point x="525" y="-169"/>
      <point x="591" y="-195"/>
    </contour>
    <contour>
      <point x="48" y="-148" type="curve" smooth="yes"/>
      <point x="294" y="-148" type="line" smooth="yes"/>
      <point x="389" y="-148"/>
      <point x="430" y="-116"/>
      <point x="430" y="-62" type="curve" smooth="yes"/>
      <point x="430" y="-43"/>
      <point x="425" y="-22"/>
      <point x="417" y="1" type="curve" smooth="yes"/>
      <point x="371" y="125" type="line" smooth="yes"/>
      <point x="365" y="140"/>
      <point x="361" y="152"/>
      <point x="361" y="162" type="curve" smooth="yes"/>
      <point x="361" y="176"/>
      <point x="370" y="187"/>
      <point x="392" y="203" type="curve" smooth="yes"/>
      <point x="571" y="330" type="line" smooth="yes"/>
      <point x="583" y="338"/>
      <point x="588" y="349"/>
      <point x="588" y="359" type="curve" smooth="yes"/>
      <point x="588" y="382"/>
      <point x="565" y="404"/>
      <point x="546" y="404" type="curve" smooth="yes"/>
      <point x="543" y="404"/>
      <point x="540" y="404"/>
      <point x="536" y="401" type="curve" smooth="yes"/>
      <point x="335" y="259" type="line" smooth="yes"/>
      <point x="290" y="227"/>
      <point x="274" y="203"/>
      <point x="274" y="175" type="curve" smooth="yes"/>
      <point x="274" y="155"/>
      <point x="281" y="134"/>
      <point x="293" y="105" type="curve" smooth="yes"/>
      <point x="323" y="29" type="line" smooth="yes"/>
      <point x="332" y="7"/>
      <point x="339" y="-12"/>
      <point x="339" y="-27" type="curve" smooth="yes"/>
      <point x="339" y="-50"/>
      <point x="322" y="-64"/>
      <point x="270" y="-64" type="curve" smooth="yes"/>
      <point x="48" y="-64" type="line" smooth="yes"/>
      <point x="32" y="-64"/>
      <point x="24" y="-85"/>
      <point x="24" y="-105" type="curve" smooth="yes"/>
      <point x="24" y="-127"/>
      <point x="33" y="-148"/>
    </contour>
    <contour>
      <point x="493" y="0" type="curve" smooth="yes"/>
      <point x="707" y="0" type="line" smooth="yes"/>
      <point x="826" y="0"/>
      <point x="868" y="34"/>
      <point x="868" y="95" type="curve" smooth="yes"/>
      <point x="868" y="124"/>
      <point x="858" y="157"/>
      <point x="844" y="196" type="curve" smooth="yes"/>
      <point x="762" y="416" type="line" smooth="yes"/>
      <point x="757" y="429"/>
      <point x="739" y="439"/>
      <point x="715" y="439" type="curve" smooth="yes"/>
      <point x="686" y="439"/>
      <point x="675" y="429"/>
      <point x="675" y="416" type="curve" smooth="yes"/>
      <point x="675" y="413"/>
      <point x="676" y="410"/>
      <point x="677" y="407" type="curve" smooth="yes"/>
      <point x="757" y="193" type="line" smooth="yes"/>
      <point x="766" y="168"/>
      <point x="775" y="143"/>
      <point x="775" y="124" type="curve" smooth="yes"/>
      <point x="775" y="100"/>
      <point x="761" y="84"/>
      <point x="713" y="84" type="curve" smooth="yes"/>
      <point x="493" y="84" type="line" smooth="yes"/>
      <point x="477" y="84"/>
      <point x="470" y="63"/>
      <point x="470" y="42" type="curve" smooth="yes"/>
      <point x="470" y="21"/>
      <point x="478" y="0"/>
    </contour>
    <contour>
      <point x="1086" y="176" type="curve"/>
      <point x="988" y="176"/>
      <point x="966" y="209"/>
      <point x="966" y="244" type="curve" smooth="yes"/>
      <point x="966" y="277"/>
      <point x="989" y="293"/>
      <point x="1011" y="293" type="curve" smooth="yes"/>
      <point x="1064" y="293"/>
      <point x="1086" y="240"/>
    </contour>
  </outline>
</glyph>
<glyph name="u10B80.fina" format="2">
  <advance width="655"/>
  <outline>
    <contour>
      <point x="349" y="-19" type="curve" smooth="yes"/>
      <point x="447" y="-19"/>
      <point x="484" y="25"/>
      <point x="513" y="72" type="curve"/>
      <point x="493" y="72" type="line"/>
      <point x="502" y="36"/>
      <point x="514" y="0"/>
      <point x="578" y="0" type="curve" smooth="yes"/>
      <point x="670" y="0" type="line" smooth="yes"/>
      <point x="686" y="0"/>
      <point x="694" y="21"/>
      <point x="694" y="42" type="curve" smooth="yes"/>
      <point x="694" y="63"/>
      <point x="687" y="84"/>
      <point x="670" y="84" type="curve" smooth="yes"/>
      <point x="608" y="84" type="line" smooth="yes"/>
      <point x="560" y="84"/>
      <point x="557" y="114"/>
      <point x="555" y="151" type="curve" smooth="yes"/>
      <point x="554" y="175"/>
      <point x="553" y="199"/>
      <point x="552" y="232" type="curve" smooth="yes"/>
      <point x="551" y="263"/>
      <point x="550" y="310"/>
      <point x="550" y="362" type="curve" smooth="yes"/>
      <point x="550" y="378"/>
      <point x="550" y="386"/>
      <point x="550" y="392" type="curve" smooth="yes"/>
      <point x="550" y="407"/>
      <point x="527" y="415"/>
      <point x="504" y="415" type="curve" smooth="yes"/>
      <point x="465" y="415"/>
      <point x="462" y="400"/>
      <point x="462" y="368" type="curve" smooth="yes"/>
      <point x="462" y="331"/>
      <point x="464" y="299"/>
      <point x="466" y="268" type="curve" smooth="yes"/>
      <point x="468" y="238"/>
      <point x="470" y="208"/>
      <point x="470" y="174" type="curve" smooth="yes"/>
      <point x="470" y="119"/>
      <point x="453" y="65"/>
      <point x="356" y="65" type="curve" smooth="yes"/>
      <point x="257" y="65"/>
      <point x="244" y="118"/>
      <point x="242" y="171" type="curve" smooth="yes"/>
      <point x="240" y="212"/>
      <point x="239" y="240"/>
      <point x="238" y="271" type="curve" smooth="yes"/>
      <point x="237" y="295"/>
      <point x="237" y="331"/>
      <point x="237" y="355" type="curve" smooth="yes"/>
      <point x="237" y="371"/>
      <point x="215" y="378"/>
      <point x="194" y="378" type="curve" smooth="yes"/>
      <point x="171" y="378"/>
      <point x="149" y="369"/>
      <point x="149" y="346" type="curve" smooth="yes"/>
      <point x="149" y="309"/>
      <point x="150" y="285"/>
      <point x="152" y="261" type="curve" smooth="yes"/>
      <point x="154" y="237"/>
      <point x="155" y="213"/>
      <point x="155" y="177" type="curve" smooth="yes"/>
      <point x="155" y="107"/>
      <point x="112" y="84"/>
      <point x="48" y="84" type="curve" smooth="yes"/>
      <point x="32" y="84"/>
      <point x="24" y="63"/>
      <point x="24" y="42" type="curve" smooth="yes"/>
      <point x="24" y="21"/>
      <point x="33" y="0"/>
      <point x="48" y="0" type="curve" smooth="yes"/>
      <point x="125" y="0"/>
      <point x="176" y="24"/>
      <point x="215" y="84" type="curve"/>
      <point x="187" y="85" type="line"/>
      <point x="210" y="24"/>
      <point x="254" y="-19"/>
    </contour>
  </outline>
</glyph>
<glyph name="u10B80.init" format="2">
  <advance width="608"/>
  <outline>
    <contour>
      <point x="306" y="-19" type="curve" smooth="yes"/>
      <point x="391" y="-19"/>
      <point x="428" y="16"/>
      <point x="448" y="39" type="curve"/>
      <point x="461" y="9"/>
      <point x="481" y="-4"/>
      <point x="500" y="-4" type="curve" smooth="yes"/>
      <point x="538" y="-4"/>
      <point x="550" y="16"/>
      <point x="550" y="52" type="curve" smooth="yes"/>
      <point x="550" y="62"/>
      <point x="547" y="70"/>
      <point x="542" y="80" type="curve" smooth="yes"/>
      <point x="534" y="97"/>
      <point x="525" y="120"/>
      <point x="522" y="166" type="curve" smooth="yes"/>
      <point x="521" y="181"/>
      <point x="521" y="195"/>
      <point x="520" y="208" type="curve" smooth="yes"/>
      <point x="516" y="264"/>
      <point x="516" y="310"/>
      <point x="516" y="372" type="curve" smooth="yes"/>
      <point x="516" y="404"/>
      <point x="501" y="415"/>
      <point x="470" y="415" type="curve" smooth="yes"/>
      <point x="442" y="415"/>
      <point x="428" y="403"/>
      <point x="428" y="368" type="curve" smooth="yes"/>
      <point x="428" y="330"/>
      <point x="430" y="299"/>
      <point x="432" y="270" type="curve" smooth="yes"/>
      <point x="434" y="241"/>
      <point x="436" y="212"/>
      <point x="436" y="179" type="curve" smooth="yes"/>
      <point x="436" y="124"/>
      <point x="417" y="65"/>
      <point x="315" y="65" type="curve" smooth="yes"/>
      <point x="220" y="65"/>
      <point x="210" y="123"/>
      <point x="207" y="176" type="curve" smooth="yes"/>
      <point x="205" y="219"/>
      <point x="204" y="242"/>
      <point x="204" y="270" type="curve" smooth="yes"/>
      <point x="204" y="291"/>
      <point x="203" y="313"/>
      <point x="202" y="346" type="curve" smooth="yes"/>
      <point x="202" y="361"/>
      <point x="181" y="378"/>
      <point x="159" y="378" type="curve" smooth="yes"/>
      <point x="137" y="378"/>
      <point x="115" y="369"/>
      <point x="115" y="346" type="curve" smooth="yes"/>
      <point x="115" y="308"/>
      <point x="116" y="284"/>
      <point x="118" y="260" type="curve" smooth="yes"/>
      <point x="120" y="237"/>
      <point x="121" y="213"/>
      <point x="121" y="177" type="curve" smooth="yes"/>
      <point x="121" y="107"/>
      <point x="78" y="84"/>
      <point x="14" y="84" type="curve" smooth="yes"/>
      <point x="-2" y="84"/>
      <point x="-10" y="63"/>
      <point x="-10" y="42" type="curve" smooth="yes"/>
      <point x="-10" y="21"/>
      <point x="-1" y="0"/>
      <point x="14" y="0" type="curve" smooth="yes"/>
      <point x="91" y="0"/>
      <point x="136" y="24"/>
      <point x="174" y="70" type="curve"/>
      <point x="146" y="71" type="line"/>
      <point x="172" y="24"/>
      <point x="217" y="-19"/>
    </contour>
    <contour>
      <point x="-16" y="0" type="curve" smooth="yes"/>
      <point x="32" y="0" type="line"/>
      <point x="32" y="84" type="line"/>
      <point x="-16" y="84" type="line" smooth="yes"/>
      <point x="-32" y="84"/>
      <point x="-39" y="63"/>
      <point x="-39" y="42" type="curve" smooth="yes"/>
      <point x="-39" y="21"/>
      <point x="-31" y="0"/>
    </contour>
  </outline>
</glyph>
<glyph name="u10B80.medi" format="2">
  <advance width="630"/>
  <outline>
    <contour>
      <point x="308" y="-19" type="curve" smooth="yes"/>
      <point x="406" y="-19"/>
      <point x="454" y="35"/>
      <point x="468" y="67" type="curve"/>
      <point x="455" y="67" type="line"/>
      <point x="463" y="39"/>
      <point x="488" y="0"/>
      <point x="542" y="0" type="curve" smooth="yes"/>
      <point x="636" y="0" type="line" smooth="yes"/>
      <point x="651" y="0"/>
      <point x="660" y="21"/>
      <point x="660" y="42" type="curve" smooth="yes"/>
      <point x="660" y="63"/>
      <point x="652" y="84"/>
      <point x="636" y="84" type="curve" smooth="yes"/>
      <point x="574" y="84" type="line" smooth="yes"/>
      <point x="525" y="84"/>
      <point x="523" y="114"/>
      <point x="521" y="166" type="curve" smooth="yes"/>
      <point x="518" y="241"/>
      <point x="516" y="294"/>
      <point x="516" y="372" type="curve" smooth="yes"/>
      <point x="516" y="378"/>
      <point x="516" y="386"/>
      <point x="516" y="392" type="curve" smooth="yes"/>
      <point x="516" y="407"/>
      <point x="493" y="415"/>
      <point x="470" y="415" type="curve" smooth="yes"/>
      <point x="431" y="415"/>
      <point x="428" y="400"/>
      <point x="428" y="368" type="curve" smooth="yes"/>
      <point x="428" y="331"/>
      <point x="430" y="299"/>
      <point x="432" y="268" type="curve" smooth="yes"/>
      <point x="434" y="238"/>
      <point x="436" y="208"/>
      <point x="436" y="174" type="curve" smooth="yes"/>
      <point x="436" y="110"/>
      <point x="412" y="65"/>
      <point x="314" y="65" type="curve" smooth="yes"/>
      <point x="223" y="65"/>
      <point x="209" y="118"/>
      <point x="207" y="171" type="curve" smooth="yes"/>
      <point x="204" y="245"/>
      <point x="203" y="291"/>
      <point x="202" y="351" type="curve" smooth="yes"/>
      <point x="202" y="371"/>
      <point x="181" y="378"/>
      <point x="159" y="378" type="curve" smooth="yes"/>
      <point x="137" y="378"/>
      <point x="115" y="369"/>
      <point x="115" y="346" type="curve" smooth="yes"/>
      <point x="115" y="308"/>
      <point x="116" y="282"/>
      <point x="118" y="260" type="curve" smooth="yes"/>
      <point x="120" y="232"/>
      <point x="121" y="209"/>
      <point x="121" y="177" type="curve" smooth="yes"/>
      <point x="121" y="107"/>
      <point x="78" y="84"/>
      <point x="14" y="84" type="curve" smooth="yes"/>
      <point x="-16" y="84" type="line" smooth="yes"/>
      <point x="-32" y="84"/>
      <point x="-39" y="63"/>
      <point x="-39" y="42" type="curve" smooth="yes"/>
      <point x="-39" y="21"/>
      <point x="-31" y="0"/>
      <point x="-16" y="0" type="curve" smooth="yes"/>
      <point x="16" y="0" type="line" smooth="yes"/>
      <point x="92" y="0"/>
      <point x="139" y="24"/>
      <point x="176" y="80" type="curve"/>
      <point x="148" y="80" type="line"/>
      <point x="174" y="24"/>
      <point x="220" y="-19"/>
    </contour>
  </outline>
</glyph>
<glyph name="u10B81.fina" format="2">
  <advance width="849"/>
  <outline>
    <contour>
      <point x="690" y="0" type="line"/>
      <point x="864" y="0" type="line" smooth="yes"/>
      <point x="879" y="0"/>
      <point x="888" y="21"/>
      <point x="888" y="42" type="curve" smooth="yes"/>
      <point x="888" y="63"/>
      <point x="880" y="84"/>
      <point x="864" y="84" type="curve" smooth="yes"/>
      <point x="690" y="84" type="line"/>
    </contour>
    <contour>
      <point x="214" y="-269" type="curve" smooth="yes"/>
      <point x="576" y="-269"/>
      <point x="775" y="-128"/>
      <point x="775" y="201" type="curve" smooth="yes"/>
      <point x="775" y="273"/>
      <point x="763" y="437"/>
      <point x="761" y="454" type="curve" smooth="yes"/>
      <point x="759" y="470"/>
      <point x="744" y="478"/>
      <point x="721" y="478" type="curve" smooth="yes"/>
      <point x="687" y="478"/>
      <point x="671" y="468"/>
      <point x="671" y="429" type="curve" smooth="yes"/>
      <point x="671" y="390"/>
      <point x="676" y="348"/>
      <point x="680" y="307" type="curve" smooth="yes"/>
      <point x="684" y="270"/>
      <point x="688" y="234"/>
      <point x="688" y="204" type="curve" smooth="yes"/>
      <point x="688" y="-64"/>
      <point x="532" y="-185"/>
      <point x="216" y="-185" type="curve" smooth="yes"/>
      <point x="43" y="-185"/>
      <point x="-51" y="-170"/>
      <point x="-106" y="-161" type="curve" smooth="yes"/>
      <point x="-129" y="-157"/>
      <point x="-146" y="-155"/>
      <point x="-158" y="-155" type="curve" smooth="yes"/>
      <point x="-188" y="-155"/>
      <point x="-195" y="-176"/>
      <point x="-195" y="-196" type="curve" smooth="yes"/>
      <point x="-195" y="-218"/>
      <point x="-188" y="-238"/>
      <point x="-159" y="-241" type="curve" smooth="yes"/>
      <point x="-151" y="-242"/>
      <point x="-141" y="-244"/>
      <point x="-128" y="-246" type="curve" smooth="yes"/>
      <point x="-78" y="-255"/>
      <point x="18" y="-269"/>
    </contour>
  </outline>
</glyph>
<glyph name="u10B82.init" format="2">
  <advance width="341"/>
  <outline>
    <contour>
      <point x="-16" y="0" type="curve" smooth="yes"/>
      <point x="73" y="0" type="line" smooth="yes"/>
      <point x="178" y="0"/>
      <point x="268" y="29"/>
      <point x="268" y="147" type="curve" smooth="yes"/>
      <point x="268" y="169"/>
      <point x="259" y="236"/>
      <point x="249" y="307" type="curve" smooth="yes"/>
      <point x="241" y="364"/>
      <point x="234" y="415"/>
      <point x="233" y="436" type="curve" smooth="yes"/>
      <point x="232" y="452"/>
      <point x="211" y="459"/>
      <point x="190" y="459" type="curve" smooth="yes"/>
      <point x="156" y="459"/>
      <point x="146" y="450"/>
      <point x="146" y="433" type="curve" smooth="yes"/>
      <point x="146" y="423"/>
      <point x="152" y="375"/>
      <point x="160" y="318" type="curve" smooth="yes"/>
      <point x="170" y="244"/>
      <point x="180" y="166"/>
      <point x="180" y="156" type="curve" smooth="yes"/>
      <point x="180" y="87"/>
      <point x="114" y="84"/>
      <point x="70" y="84" type="curve" smooth="yes"/>
      <point x="-16" y="84" type="line" smooth="yes"/>
      <point x="-32" y="84"/>
      <point x="-39" y="63"/>
      <point x="-39" y="42" type="curve" smooth="yes"/>
      <point x="-39" y="21"/>
      <point x="-31" y="0"/>
    </contour>
  </outline>
</glyph>
<glyph name="u10B82.medi" format="2">
  <advance width="448"/>
  <outline>
    <contour>
      <point x="-16" y="0" type="curve" smooth="yes"/>
      <point x="78" y="0" type="line" smooth="yes"/>
      <point x="146" y="0"/>
      <point x="217" y="19"/>
      <point x="247" y="73" type="curve"/>
      <point x="213" y="77" type="line"/>
      <point x="246" y="8"/>
      <point x="313" y="0"/>
      <point x="387" y="0" type="curve" smooth="yes"/>
      <point x="463" y="0" type="line" smooth="yes"/>
      <point x="479" y="0"/>
      <point x="487" y="21"/>
      <point x="487" y="42" type="curve" smooth="yes"/>
      <point x="487" y="63"/>
      <point x="479" y="84"/>
      <point x="463" y="84" type="curve" smooth="yes"/>
      <point x="387" y="84" type="line" smooth="yes"/>
      <point x="318" y="84"/>
      <point x="282" y="104"/>
      <point x="271" y="183" type="curve" smooth="yes"/>
      <point x="261" y="253"/>
      <point x="240" y="407"/>
      <point x="238" y="436" type="curve" smooth="yes"/>
      <point x="237" y="452"/>
      <point x="216" y="459"/>
      <point x="195" y="459" type="curve" smooth="yes"/>
      <point x="172" y="459"/>
      <point x="150" y="451"/>
      <point x="150" y="436" type="curve" smooth="yes"/>
      <point x="150" y="418"/>
      <point x="172" y="260"/>
      <point x="180" y="208" type="curve" smooth="yes"/>
      <point x="185" y="174"/>
      <point x="185" y="156"/>
      <point x="185" y="152" type="curve" smooth="yes"/>
      <point x="185" y="99"/>
      <point x="145" y="84"/>
      <point x="75" y="84" type="curve" smooth="yes"/>
      <point x="-16" y="84" type="line" smooth="yes"/>
      <point x="-32" y="84"/>
      <point x="-39" y="63"/>
      <point x="-39" y="42" type="curve" smooth="yes"/>
      <point x="-39" y="21"/>
      <point x="-31" y="0"/>
    </contour>
  </outline>
</glyph>
<glyph name="u10B83.fina" format="2">
  <advance width="692"/>
  <outline>
    <contour>
      <point x="169" y="-337" type="curve" smooth="yes"/>
      <point x="464" y="-337"/>
      <point x="633" y="-146"/>
      <point x="633" y="37" type="curve" smooth="yes"/>
      <point x="633" y="67" type="line" smooth="yes"/>
      <point x="633" y="208"/>
      <point x="568" y="283"/>
      <point x="479" y="283" type="curve" smooth="yes"/>
      <point x="391" y="283"/>
      <point x="341" y="223"/>
      <point x="341" y="147" type="curve" smooth="yes"/>
      <point x="341" y="63"/>
      <point x="411" y="4"/>
      <point x="545" y="4" type="curve"/>
      <point x="534" y="-131"/>
      <point x="406" y="-253"/>
      <point x="167" y="-253" type="curve" smooth="yes"/>
      <point x="73" y="-253"/>
      <point x="23" y="-244"/>
      <point x="-13" y="-234" type="curve" smooth="yes"/>
      <point x="-37" y="-227"/>
      <point x="-60" y="-222"/>
      <point x="-72" y="-222" type="curve" smooth="yes"/>
      <point x="-90" y="-222"/>
      <point x="-98" y="-241"/>
      <point x="-98" y="-262" type="curve" smooth="yes"/>
      <point x="-98" y="-283"/>
      <point x="-89" y="-298"/>
      <point x="-74" y="-302" type="curve" smooth="yes"/>
      <point x="17" y="-327"/>
      <point x="68" y="-337"/>
    </contour>
    <contour>
      <point x="545" y="82" type="curve"/>
      <point x="447" y="82"/>
      <point x="425" y="115"/>
      <point x="425" y="150" type="curve" smooth="yes"/>
      <point x="425" y="183"/>
      <point x="448" y="199"/>
      <point x="470" y="199" type="curve" smooth="yes"/>
      <point x="523" y="199"/>
      <point x="545" y="146"/>
    </contour>
    <contour>
      <point x="548" y="0" type="line"/>
      <point x="722" y="0" type="line" smooth="yes"/>
      <point x="737" y="0"/>
      <point x="746" y="21"/>
      <point x="746" y="42" type="curve" smooth="yes"/>
      <point x="746" y="63"/>
      <point x="738" y="84"/>
      <point x="722" y="84" type="curve" smooth="yes"/>
      <point x="548" y="84" type="line"/>
    </contour>
  </outline>
</glyph>
<glyph name="u10B84.fina" format="2">
  <advance width="617"/>
  <outline>
    <contour>
      <point x="512" y="-56" type="curve" smooth="yes"/>
      <point x="535" y="-56"/>
      <point x="558" y="-47"/>
      <point x="558" y="-34" type="curve" smooth="yes"/>
      <point x="558" y="-33"/>
      <point x="558" y="-33"/>
      <point x="558" y="-32" type="curve" smooth="yes"/>
      <point x="511" y="479" type="line" smooth="yes"/>
      <point x="510" y="494"/>
      <point x="488" y="503"/>
      <point x="465" y="503" type="curve" smooth="yes"/>
      <point x="445" y="503"/>
      <point x="423" y="497"/>
      <point x="423" y="480" type="curve" smooth="yes"/>
      <point x="423" y="479" type="line"/>
      <point x="443" y="264" type="line"/>
      <point x="456" y="286" type="line"/>
      <point x="416" y="334"/>
      <point x="356" y="363"/>
      <point x="277" y="363" type="curve" smooth="yes"/>
      <point x="128" y="363"/>
      <point x="49" y="278"/>
      <point x="49" y="169" type="curve" smooth="yes"/>
      <point x="49" y="73"/>
      <point x="111" y="-12"/>
      <point x="230" y="-12" type="curve" smooth="yes"/>
      <point x="281" y="-12"/>
      <point x="325" y="2"/>
      <point x="340" y="11" type="curve" smooth="yes"/>
      <point x="353" y="19"/>
      <point x="365" y="28"/>
      <point x="365" y="54" type="curve" smooth="yes"/>
      <point x="365" y="76"/>
      <point x="355" y="91"/>
      <point x="339" y="91" type="curve" smooth="yes"/>
      <point x="329" y="91"/>
      <point x="320" y="88"/>
      <point x="311" y="84" type="curve" smooth="yes"/>
      <point x="295" y="77"/>
      <point x="276" y="70"/>
      <point x="230" y="70" type="curve" smooth="yes"/>
      <point x="188" y="70"/>
      <point x="136" y="100"/>
      <point x="136" y="169" type="curve" smooth="yes"/>
      <point x="136" y="237"/>
      <point x="185" y="279"/>
      <point x="271" y="279" type="curve" smooth="yes"/>
      <point x="368" y="279"/>
      <point x="430" y="231"/>
      <point x="454" y="150" type="curve"/>
      <point x="470" y="-31" type="line" smooth="yes"/>
      <point x="472" y="-49"/>
      <point x="492" y="-56"/>
    </contour>
    <contour>
      <point x="473" y="0" type="line"/>
      <point x="647" y="0" type="line" smooth="yes"/>
      <point x="662" y="0"/>
      <point x="671" y="21"/>
      <point x="671" y="42" type="curve" smooth="yes"/>
      <point x="671" y="63"/>
      <point x="663" y="84"/>
      <point x="647" y="84" type="curve" smooth="yes"/>
      <point x="473" y="84" type="line"/>
    </contour>
  </outline>
</glyph>
<glyph name="u10B85.fina" format="2">
  <advance width="287"/>
  <outline>
    <contour>
      <point x="230" y="0" type="curve" smooth="yes"/>
      <point x="303" y="0" type="line" smooth="yes"/>
      <point x="318" y="0"/>
      <point x="326" y="21"/>
      <point x="326" y="42" type="curve" smooth="yes"/>
      <point x="326" y="63"/>
      <point x="319" y="84"/>
      <point x="303" y="84" type="curve" smooth="yes"/>
      <point x="231" y="84" type="line" smooth="yes"/>
      <point x="177" y="84"/>
      <point x="169" y="94"/>
      <point x="165" y="154" type="curve" smooth="yes"/>
      <point x="159" y="239"/>
      <point x="158" y="297"/>
      <point x="156" y="417" type="curve" smooth="yes"/>
      <point x="156" y="432"/>
      <point x="134" y="439"/>
      <point x="111" y="439" type="curve" smooth="yes"/>
      <point x="90" y="439"/>
      <point x="68" y="432"/>
      <point x="68" y="417" type="curve" smooth="yes"/>
      <point x="69" y="324"/>
      <point x="73" y="224"/>
      <point x="78" y="131" type="curve" smooth="yes"/>
      <point x="83" y="31"/>
      <point x="123" y="0"/>
    </contour>
  </outline>
</glyph>
<glyph name="u10B86.fina" format="2">
  <advance width="403"/>
  <outline>
    <contour>
      <point x="186" y="0" type="curve" smooth="yes"/>
      <point x="419" y="0" type="line" smooth="yes"/>
      <point x="434" y="0"/>
      <point x="442" y="21"/>
      <point x="442" y="42" type="curve" smooth="yes"/>
      <point x="442" y="63"/>
      <point x="435" y="84"/>
      <point x="419" y="84" type="curve" smooth="yes"/>
      <point x="338" y="84" type="line"/>
      <point x="257" y="105"/>
      <point x="154" y="155"/>
      <point x="154" y="260" type="curve" smooth="yes"/>
      <point x="154" y="336"/>
      <point x="202" y="365"/>
      <point x="250" y="365" type="curve" smooth="yes"/>
      <point x="271" y="365"/>
      <point x="284" y="363"/>
      <point x="296" y="360" type="curve" smooth="yes"/>
      <point x="307" y="357"/>
      <point x="316" y="356"/>
      <point x="330" y="356" type="curve" smooth="yes"/>
      <point x="355" y="356"/>
      <point x="369" y="376"/>
      <point x="369" y="398" type="curve" smooth="yes"/>
      <point x="369" y="435"/>
      <point x="313" y="449"/>
      <point x="259" y="449" type="curve" smooth="yes"/>
      <point x="146" y="449"/>
      <point x="67" y="375"/>
      <point x="67" y="254" type="curve" smooth="yes"/>
      <point x="67" y="122"/>
      <point x="180" y="83"/>
      <point x="200" y="81" type="curve"/>
      <point x="190" y="78"/>
      <point x="181" y="78"/>
      <point x="171" y="78" type="curve" smooth="yes"/>
      <point x="144" y="78"/>
      <point x="117" y="85"/>
      <point x="99" y="91" type="curve" smooth="yes"/>
      <point x="85" y="96"/>
      <point x="75" y="98"/>
      <point x="68" y="98" type="curve" smooth="yes"/>
      <point x="47" y="98"/>
      <point x="39" y="81"/>
      <point x="39" y="64" type="curve" smooth="yes"/>
      <point x="39" y="40"/>
      <point x="55" y="28"/>
      <point x="66" y="21" type="curve" smooth="yes"/>
      <point x="81" y="12"/>
      <point x="136" y="0"/>
    </contour>
  </outline>
</glyph>
<glyph name="u10B86.init" format="2">
  <advance width="403"/>
  <outline>
    <contour>
      <point x="-16" y="0" type="curve" smooth="yes"/>
      <point x="167" y="0" type="line" smooth="yes"/>
      <point x="302" y="0"/>
      <point x="344" y="22"/>
      <point x="344" y="66" type="curve" smooth="yes"/>
      <point x="344" y="89"/>
      <point x="323" y="105"/>
      <point x="270" y="126" type="curve" smooth="yes"/>
      <point x="208" y="150"/>
      <point x="130" y="181"/>
      <point x="130" y="260" type="curve" smooth="yes"/>
      <point x="130" y="328"/>
      <point x="177" y="365"/>
      <point x="225" y="365" type="curve" smooth="yes"/>
      <point x="246" y="365"/>
      <point x="258" y="363"/>
      <point x="270" y="360" type="curve" smooth="yes"/>
      <point x="284" y="357"/>
      <point x="294" y="356"/>
      <point x="306" y="356" type="curve" smooth="yes"/>
      <point x="331" y="356"/>
      <point x="345" y="376"/>
      <point x="345" y="398" type="curve" smooth="yes"/>
      <point x="345" y="435"/>
      <point x="288" y="449"/>
      <point x="235" y="449" type="curve" smooth="yes"/>
      <point x="121" y="449"/>
      <point x="43" y="375"/>
      <point x="43" y="259" type="curve" smooth="yes"/>
      <point x="43" y="120"/>
      <point x="167" y="86"/>
      <point x="213" y="77" type="curve"/>
      <point x="230" y="84" type="line"/>
      <point x="-16" y="84" type="line" smooth="yes"/>
      <point x="-32" y="84"/>
      <point x="-39" y="63"/>
      <point x="-39" y="42" type="curve" smooth="yes"/>
      <point x="-39" y="21"/>
      <point x="-31" y="0"/>
    </contour>
  </outline>
</glyph>
<glyph name="u10B86.medi" format="2">
  <advance width="379"/>
  <outline>
    <contour>
      <point x="-16" y="0" type="curve" smooth="yes"/>
      <point x="395" y="0" type="line" smooth="yes"/>
      <point x="410" y="0"/>
      <point x="418" y="21"/>
      <point x="418" y="42" type="curve" smooth="yes"/>
      <point x="418" y="63"/>
      <point x="411" y="84"/>
      <point x="395" y="84" type="curve" smooth="yes"/>
      <point x="321" y="84" type="line"/>
      <point x="261" y="94"/>
      <point x="130" y="145"/>
      <point x="130" y="260" type="curve" smooth="yes"/>
      <point x="130" y="328"/>
      <point x="177" y="365"/>
      <point x="225" y="365" type="curve" smooth="yes"/>
      <point x="246" y="365"/>
      <point x="258" y="363"/>
      <point x="270" y="360" type="curve" smooth="yes"/>
      <point x="279" y="358"/>
      <point x="293" y="356"/>
      <point x="306" y="356" type="curve" smooth="yes"/>
      <point x="331" y="356"/>
      <point x="345" y="376"/>
      <point x="345" y="398" type="curve" smooth="yes"/>
      <point x="345" y="435"/>
      <point x="288" y="449"/>
      <point x="235" y="449" type="curve" smooth="yes"/>
      <point x="121" y="449"/>
      <point x="43" y="375"/>
      <point x="43" y="254" type="curve" smooth="yes"/>
      <point x="43" y="141"/>
      <point x="123" y="98"/>
      <point x="155" y="84" type="curve"/>
      <point x="-16" y="84" type="line" smooth="yes"/>
      <point x="-32" y="84"/>
      <point x="-39" y="63"/>
      <point x="-39" y="42" type="curve" smooth="yes"/>
      <point x="-39" y="21"/>
      <point x="-31" y="0"/>
    </contour>
  </outline>
</glyph>
<glyph name="u10B87.medi" format="2">
  <advance width="712"/>
  <outline>
    <contour>
      <point x="462" y="-41" type="curve" smooth="yes"/>
      <point x="585" y="-41"/>
      <point x="658" y="30"/>
      <point x="658" y="199" type="curve" smooth="yes"/>
      <point x="658" y="367"/>
      <point x="627" y="410"/>
      <point x="582" y="410" type="curve" smooth="yes"/>
      <point x="516" y="410"/>
      <point x="454" y="322"/>
      <point x="454" y="269" type="curve" smooth="yes"/>
      <point x="454" y="252"/>
      <point x="464" y="226"/>
      <point x="487" y="226" type="curve" smooth="yes"/>
      <point x="502" y="226"/>
      <point x="516" y="234"/>
      <point x="527" y="242" type="curve" smooth="yes"/>
      <point x="536" y="249"/>
      <point x="546" y="254"/>
      <point x="555" y="254" type="curve" smooth="yes"/>
      <point x="563" y="254"/>
      <point x="570" y="250"/>
      <point x="570" y="180" type="curve" smooth="yes"/>
      <point x="570" y="80"/>
      <point x="531" y="43"/>
      <point x="462" y="43" type="curve" smooth="yes"/>
      <point x="363" y="43"/>
      <point x="345" y="175"/>
      <point x="336" y="243" type="curve" smooth="yes"/>
      <point x="327" y="310"/>
      <point x="318" y="366"/>
      <point x="307" y="400" type="curve" smooth="yes"/>
      <point x="299" y="426"/>
      <point x="286" y="439"/>
      <point x="263" y="439" type="curve" smooth="yes"/>
      <point x="222" y="439"/>
      <point x="198" y="391"/>
      <point x="121" y="200" type="curve" smooth="yes"/>
      <point x="95" y="136"/>
      <point x="65" y="85"/>
      <point x="19" y="84" type="curve" smooth="yes"/>
      <point x="3" y="84"/>
      <point x="-10" y="63"/>
      <point x="-10" y="42" type="curve" smooth="yes"/>
      <point x="-10" y="21"/>
      <point x="-1" y="0"/>
      <point x="14" y="0" type="curve" smooth="yes"/>
      <point x="138" y="0"/>
      <point x="170" y="84"/>
      <point x="203" y="170" type="curve" smooth="yes"/>
      <point x="221" y="216"/>
      <point x="240" y="271"/>
      <point x="259" y="331" type="curve"/>
      <point x="246" y="331" type="line"/>
      <point x="249" y="270"/>
      <point x="256" y="225"/>
      <point x="264" y="175" type="curve" smooth="yes"/>
      <point x="279" y="82"/>
      <point x="324" y="-41"/>
    </contour>
    <contour>
      <point x="-16" y="0" type="curve" smooth="yes"/>
      <point x="32" y="0" type="line"/>
      <point x="32" y="84" type="line"/>
      <point x="-16" y="84" type="line" smooth="yes"/>
      <point x="-32" y="84"/>
      <point x="-39" y="63"/>
      <point x="-39" y="42" type="curve" smooth="yes"/>
      <point x="-39" y="21"/>
      <point x="-31" y="0"/>
    </contour>
    <contour>
      <point x="553" y="0" type="line"/>
      <point x="727" y="0" type="line" smooth="yes"/>
      <point x="742" y="0"/>
      <point x="751" y="21"/>
      <point x="751" y="42" type="curve" smooth="yes"/>
      <point x="751" y="63"/>
      <point x="743" y="84"/>
      <point x="727" y="84" type="curve" smooth="yes"/>
      <point x="553" y="84" type="line"/>
    </contour>
  </outline>
</glyph>
<glyph name="u10B88.fina" format="2">
  <advance width="536"/>
  <outline>
    <contour>
      <point x="102" y="0" type="curve" smooth="yes"/>
      <point x="129" y="0"/>
      <point x="145" y="12"/>
      <point x="146" y="23" type="curve" smooth="yes"/>
      <point x="160" y="197" type="line" smooth="yes"/>
      <point x="166" y="271"/>
      <point x="184" y="352"/>
      <point x="281" y="352" type="curve" smooth="yes"/>
      <point x="374" y="352"/>
      <point x="393" y="271"/>
      <point x="399" y="197" type="curve" smooth="yes"/>
      <point x="413" y="23" type="line" smooth="yes"/>
      <point x="414" y="11"/>
      <point x="424" y="0"/>
      <point x="436" y="0" type="curve" smooth="yes"/>
      <point x="552" y="0" type="line" smooth="yes"/>
      <point x="567" y="0"/>
      <point x="575" y="21"/>
      <point x="575" y="42" type="curve" smooth="yes"/>
      <point x="575" y="63"/>
      <point x="568" y="84"/>
      <point x="552" y="84" type="curve" smooth="yes"/>
      <point x="495" y="84" type="line"/>
      <point x="486" y="198" type="line" smooth="yes"/>
      <point x="475" y="340"/>
      <point x="421" y="439"/>
      <point x="282" y="439" type="curve" smooth="yes"/>
      <point x="156" y="439"/>
      <point x="84" y="340"/>
      <point x="72" y="193" type="curve" smooth="yes"/>
      <point x="61" y="58"/>
      <point x="59" y="24"/>
      <point x="59" y="22" type="curve" smooth="yes"/>
      <point x="59" y="9"/>
      <point x="76" y="0"/>
    </contour>
  </outline>
</glyph>
<glyph name="u10B88.medi" format="2">
  <advance width="421"/>
  <outline>
    <contour>
      <point x="-16" y="0" type="curve"/>
      <point x="172" y="0" type="line" smooth="yes"/>
      <point x="300" y="0"/>
      <point x="392" y="91"/>
      <point x="392" y="216" type="curve" smooth="yes"/>
      <point x="392" y="330"/>
      <point x="317" y="422"/>
      <point x="197" y="422" type="curve" smooth="yes"/>
      <point x="135" y="422"/>
      <point x="55" y="397"/>
      <point x="55" y="361" type="curve" smooth="yes"/>
      <point x="55" y="338"/>
      <point x="69" y="318"/>
      <point x="94" y="318" type="curve" smooth="yes"/>
      <point x="98" y="318"/>
      <point x="108" y="320"/>
      <point x="118" y="324" type="curve" smooth="yes"/>
      <point x="134" y="330"/>
      <point x="164" y="338"/>
      <point x="198" y="338" type="curve" smooth="yes"/>
      <point x="256" y="338"/>
      <point x="304" y="293"/>
      <point x="304" y="219" type="curve" smooth="yes"/>
      <point x="304" y="125"/>
      <point x="244" y="84"/>
      <point x="153" y="84" type="curve" smooth="yes"/>
      <point x="-11" y="84" type="line" smooth="yes"/>
      <point x="-27" y="84"/>
      <point x="-39" y="63"/>
      <point x="-39" y="42" type="curve" smooth="yes"/>
      <point x="-39" y="21"/>
      <point x="-31" y="0"/>
    </contour>
    <contour>
      <point x="160" y="0" type="line"/>
      <point x="331" y="0" type="line"/>
      <point x="331" y="84" type="line"/>
      <point x="160" y="84" type="line"/>
    </contour>
    <contour>
      <point x="263" y="0" type="line"/>
      <point x="437" y="0" type="line" smooth="yes"/>
      <point x="452" y="0"/>
      <point x="461" y="21"/>
      <point x="461" y="42" type="curve" smooth="yes"/>
      <point x="461" y="63"/>
      <point x="453" y="84"/>
      <point x="437" y="84" type="curve" smooth="yes"/>
      <point x="263" y="84" type="line"/>
    </contour>
  </outline>
</glyph>
<glyph name="u10B89.fina" format="2">
  <advance width="366"/>
  <outline>
    <contour>
      <point x="384" y="-337" type="curve" smooth="yes"/>
      <point x="517" y="-337"/>
      <point x="607" y="-331"/>
      <point x="713" y="-324" type="curve" smooth="yes"/>
      <point x="799" y="-318"/>
      <point x="879" y="-313"/>
      <point x="972" y="-313" type="curve" smooth="yes"/>
      <point x="987" y="-313"/>
      <point x="995" y="-292"/>
      <point x="995" y="-271" type="curve" smooth="yes"/>
      <point x="995" y="-250"/>
      <point x="988" y="-235"/>
      <point x="972" y="-234" type="curve" smooth="yes"/>
      <point x="946" y="-232"/>
      <point x="917" y="-231"/>
      <point x="886" y="-231" type="curve" smooth="yes"/>
      <point x="812" y="-231"/>
      <point x="741" y="-236"/>
      <point x="667" y="-242" type="curve" smooth="yes"/>
      <point x="588" y="-248"/>
      <point x="504" y="-253"/>
      <point x="407" y="-253" type="curve" smooth="yes"/>
      <point x="292" y="-253"/>
      <point x="170" y="-250"/>
      <point x="170" y="-190" type="curve" smooth="yes"/>
      <point x="170" y="-148"/>
      <point x="196" y="-118"/>
      <point x="226" y="-84" type="curve" smooth="yes"/>
      <point x="263" y="-42"/>
      <point x="303" y="9"/>
      <point x="303" y="91" type="curve" smooth="yes"/>
      <point x="303" y="175"/>
      <point x="285" y="278"/>
      <point x="222" y="278" type="curve" smooth="yes"/>
      <point x="155" y="278"/>
      <point x="24" y="118"/>
      <point x="24" y="60" type="curve" smooth="yes"/>
      <point x="24" y="19"/>
      <point x="52" y="-5"/>
      <point x="93" y="-5" type="curve" smooth="yes"/>
      <point x="140" y="-5"/>
      <point x="177" y="0"/>
      <point x="196" y="3" type="curve"/>
      <point x="196" y="-7"/>
      <point x="183" y="-21"/>
      <point x="165" y="-39" type="curve" smooth="yes"/>
      <point x="129" y="-75"/>
      <point x="79" y="-127"/>
      <point x="79" y="-202" type="curve" smooth="yes"/>
      <point x="79" y="-336"/>
      <point x="252" y="-337"/>
    </contour>
    <contour>
      <point x="148" y="79" type="curve" smooth="yes"/>
      <point x="135" y="79"/>
      <point x="133" y="90"/>
      <point x="133" y="97" type="curve" smooth="yes"/>
      <point x="133" y="120"/>
      <point x="178" y="167"/>
      <point x="191" y="167" type="curve" smooth="yes"/>
      <point x="203" y="167"/>
      <point x="211" y="154"/>
      <point x="211" y="114" type="curve" smooth="yes"/>
      <point x="211" y="107"/>
      <point x="211" y="104"/>
      <point x="210" y="85" type="curve"/>
      <point x="187" y="80"/>
      <point x="161" y="79"/>
    </contour>
    <contour>
      <point x="208" y="0" type="line"/>
      <point x="382" y="0" type="line" smooth="yes"/>
      <point x="397" y="0"/>
      <point x="406" y="21"/>
      <point x="406" y="42" type="curve" smooth="yes"/>
      <point x="406" y="63"/>
      <point x="398" y="84"/>
      <point x="382" y="84" type="curve" smooth="yes"/>
      <point x="208" y="84" type="line"/>
    </contour>
  </outline>
</glyph>
<glyph name="u10B89_alt2.fina" format="2">
  <advance width="366"/>
  <outline>
    <contour>
      <point x="208" y="0" type="line"/>
      <point x="382" y="0" type="line" smooth="yes"/>
      <point x="397" y="0"/>
      <point x="406" y="21"/>
      <point x="406" y="42" type="curve" smooth="yes"/>
      <point x="406" y="63"/>
      <point x="398" y="84"/>
      <point x="382" y="84" type="curve" smooth="yes"/>
      <point x="208" y="84" type="line"/>
    </contour>
    <contour>
      <point x="384" y="-539" type="curve" smooth="yes"/>
      <point x="517" y="-539"/>
      <point x="607" y="-533"/>
      <point x="713" y="-526" type="curve" smooth="yes"/>
      <point x="799" y="-520"/>
      <point x="879" y="-515"/>
      <point x="972" y="-515" type="curve" smooth="yes"/>
      <point x="987" y="-515"/>
      <point x="995" y="-494"/>
      <point x="995" y="-473" type="curve" smooth="yes"/>
      <point x="995" y="-452"/>
      <point x="988" y="-437"/>
      <point x="972" y="-436" type="curve" smooth="yes"/>
      <point x="946" y="-434"/>
      <point x="917" y="-433"/>
      <point x="886" y="-433" type="curve" smooth="yes"/>
      <point x="812" y="-433"/>
      <point x="741" y="-438"/>
      <point x="667" y="-444" type="curve" smooth="yes"/>
      <point x="588" y="-450"/>
      <point x="504" y="-455"/>
      <point x="407" y="-455" type="curve" smooth="yes"/>
      <point x="292" y="-455"/>
      <point x="170" y="-450"/>
      <point x="170" y="-340" type="curve" smooth="yes"/>
      <point x="170" y="-274"/>
      <point x="196" y="-227"/>
      <point x="228" y="-171" type="curve" smooth="yes"/>
      <point x="262" y="-111"/>
      <point x="303" y="-34"/>
      <point x="303" y="89" type="curve" smooth="yes"/>
      <point x="303" y="173"/>
      <point x="285" y="276"/>
      <point x="222" y="276" type="curve" smooth="yes"/>
      <point x="155" y="276"/>
      <point x="24" y="116"/>
      <point x="24" y="58" type="curve" smooth="yes"/>
      <point x="24" y="17"/>
      <point x="52" y="-7"/>
      <point x="93" y="-7" type="curve" smooth="yes"/>
      <point x="141" y="-7"/>
      <point x="179" y="-4"/>
      <point x="199" y="-1" type="curve"/>
      <point x="192" y="-36"/>
      <point x="180" y="-73"/>
      <point x="148" y="-128" type="curve" smooth="yes"/>
      <point x="114" y="-187"/>
      <point x="79" y="-254"/>
      <point x="79" y="-340" type="curve" smooth="yes"/>
      <point x="79" y="-510"/>
      <point x="216" y="-539"/>
    </contour>
    <contour>
      <point x="148" y="77" type="curve" smooth="yes"/>
      <point x="135" y="77"/>
      <point x="133" y="88"/>
      <point x="133" y="95" type="curve" smooth="yes"/>
      <point x="133" y="118"/>
      <point x="178" y="165"/>
      <point x="191" y="165" type="curve" smooth="yes"/>
      <point x="203" y="165"/>
      <point x="211" y="152"/>
      <point x="211" y="112" type="curve" smooth="yes"/>
      <point x="211" y="105"/>
      <point x="211" y="102"/>
      <point x="210" y="83" type="curve"/>
      <point x="187" y="78"/>
      <point x="161" y="77"/>
    </contour>
  </outline>
</glyph>
<glyph name="u10B89_alt2" format="2">
  <advance width="800"/>
  <outline>
    <contour>
      <point x="384" y="-529" type="curve" smooth="yes"/>
      <point x="517" y="-529"/>
      <point x="607" y="-523"/>
      <point x="713" y="-516" type="curve" smooth="yes"/>
      <point x="799" y="-510"/>
      <point x="879" y="-505"/>
      <point x="972" y="-505" type="curve" smooth="yes"/>
      <point x="987" y="-505"/>
      <point x="995" y="-484"/>
      <point x="995" y="-463" type="curve" smooth="yes"/>
      <point x="995" y="-442"/>
      <point x="988" y="-427"/>
      <point x="972" y="-426" type="curve" smooth="yes"/>
      <point x="946" y="-424"/>
      <point x="917" y="-423"/>
      <point x="886" y="-423" type="curve" smooth="yes"/>
      <point x="812" y="-423"/>
      <point x="741" y="-428"/>
      <point x="667" y="-434" type="curve" smooth="yes"/>
      <point x="588" y="-440"/>
      <point x="504" y="-445"/>
      <point x="407" y="-445" type="curve" smooth="yes"/>
      <point x="292" y="-445"/>
      <point x="170" y="-439"/>
      <point x="170" y="-308" type="curve" smooth="yes"/>
      <point x="170" y="-235"/>
      <point x="196" y="-182"/>
      <point x="228" y="-120" type="curve" smooth="yes"/>
      <point x="262" y="-54"/>
      <point x="303" y="43"/>
      <point x="303" y="189" type="curve" smooth="yes"/>
      <point x="303" y="273"/>
      <point x="285" y="376"/>
      <point x="222" y="376" type="curve" smooth="yes"/>
      <point x="155" y="376"/>
      <point x="24" y="216"/>
      <point x="24" y="158" type="curve" smooth="yes"/>
      <point x="24" y="117"/>
      <point x="52" y="93"/>
      <point x="93" y="93" type="curve" smooth="yes"/>
      <point x="141" y="93"/>
      <point x="179" y="96"/>
      <point x="199" y="99" type="curve"/>
      <point x="195" y="52"/>
      <point x="182" y="-7"/>
      <point x="148" y="-73" type="curve" smooth="yes"/>
      <point x="114" y="-138"/>
      <point x="79" y="-213"/>
      <point x="79" y="-308" type="curve" smooth="yes"/>
      <point x="79" y="-497"/>
      <point x="216" y="-529"/>
    </contour>
    <contour>
      <point x="148" y="177" type="curve" smooth="yes"/>
      <point x="135" y="177"/>
      <point x="133" y="188"/>
      <point x="133" y="195" type="curve" smooth="yes"/>
      <point x="133" y="218"/>
      <point x="178" y="265"/>
      <point x="191" y="265" type="curve" smooth="yes"/>
      <point x="203" y="265"/>
      <point x="211" y="252"/>
      <point x="211" y="212" type="curve" smooth="yes"/>
      <point x="211" y="205"/>
      <point x="211" y="202"/>
      <point x="210" y="183" type="curve"/>
      <point x="187" y="178"/>
      <point x="161" y="177"/>
    </contour>
  </outline>
</glyph>
<glyph name="u10B8A.fina" format="2">
  <advance width="544"/>
  <outline>
    <contour>
      <point x="216" y="-12" type="curve" smooth="yes"/>
      <point x="376" y="-12"/>
      <point x="500" y="31"/>
      <point x="500" y="187" type="curve" smooth="yes"/>
      <point x="500" y="271"/>
      <point x="438" y="342"/>
      <point x="319" y="342" type="curve" smooth="yes"/>
      <point x="281" y="342"/>
      <point x="249" y="334"/>
      <point x="228" y="328" type="curve"/>
      <point x="230" y="393"/>
      <point x="241" y="485"/>
      <point x="249" y="543" type="curve" smooth="yes"/>
      <point x="253" y="572"/>
      <point x="255" y="593"/>
      <point x="255" y="602" type="curve" smooth="yes"/>
      <point x="255" y="618"/>
      <point x="234" y="625"/>
      <point x="212" y="625" type="curve" smooth="yes"/>
      <point x="190" y="625"/>
      <point x="169" y="617"/>
      <point x="167" y="602" type="curve" smooth="yes"/>
      <point x="161" y="564"/>
      <point x="144" y="404"/>
      <point x="144" y="300" type="curve" smooth="yes"/>
      <point x="144" y="275"/>
      <point x="147" y="243"/>
      <point x="172" y="243" type="curve" smooth="yes"/>
      <point x="179" y="243"/>
      <point x="190" y="245"/>
      <point x="204" y="250" type="curve" smooth="yes"/>
      <point x="219" y="255"/>
      <point x="245" y="261"/>
      <point x="288" y="261" type="curve" smooth="yes"/>
      <point x="331" y="261"/>
      <point x="411" y="250"/>
      <point x="411" y="183" type="curve" smooth="yes"/>
      <point x="411" y="92"/>
      <point x="354" y="72"/>
      <point x="213" y="72" type="curve" smooth="yes"/>
      <point x="161" y="72"/>
      <point x="94" y="83"/>
      <point x="64" y="88" type="curve" smooth="yes"/>
      <point x="41" y="92"/>
      <point x="29" y="94"/>
      <point x="23" y="94" type="curve" smooth="yes"/>
      <point x="7" y="94"/>
      <point x="0" y="73"/>
      <point x="0" y="52" type="curve" smooth="yes"/>
      <point x="0" y="31"/>
      <point x="9" y="14"/>
      <point x="23" y="10" type="curve" smooth="yes"/>
      <point x="35" y="7"/>
      <point x="128" y="-12"/>
    </contour>
    <contour>
      <point x="341" y="0" type="line"/>
      <point x="564" y="0" type="line" smooth="yes"/>
      <point x="579" y="0"/>
      <point x="588" y="21"/>
      <point x="588" y="42" type="curve" smooth="yes"/>
      <point x="588" y="63"/>
      <point x="580" y="84"/>
      <point x="564" y="84" type="curve" smooth="yes"/>
      <point x="341" y="84" type="line"/>
    </contour>
  </outline>
</glyph>
<glyph name="u10B8A.init" format="2">
  <advance width="343"/>
  <outline>
    <contour>
      <point x="-16" y="0" type="curve" smooth="yes"/>
      <point x="43" y="0" type="line" smooth="yes"/>
      <point x="150" y="0"/>
      <point x="247" y="31"/>
      <point x="247" y="157" type="curve" smooth="yes"/>
      <point x="247" y="201"/>
      <point x="246" y="244"/>
      <point x="244" y="287" type="curve" smooth="yes"/>
      <point x="242" y="329"/>
      <point x="242" y="371"/>
      <point x="242" y="412" type="curve" smooth="yes"/>
      <point x="242" y="476"/>
      <point x="245" y="539"/>
      <point x="252" y="602" type="curve"/>
      <point x="252" y="618"/>
      <point x="231" y="625"/>
      <point x="209" y="625" type="curve" smooth="yes"/>
      <point x="187" y="625"/>
      <point x="167" y="617"/>
      <point x="165" y="602" type="curve" smooth="yes"/>
      <point x="156" y="537"/>
      <point x="154" y="472"/>
      <point x="154" y="406" type="curve" smooth="yes"/>
      <point x="154" y="383"/>
      <point x="154" y="349"/>
      <point x="156" y="313" type="curve" smooth="yes"/>
      <point x="158" y="267"/>
      <point x="159" y="225"/>
      <point x="159" y="187" type="curve" smooth="yes"/>
      <point x="159" y="101"/>
      <point x="103" y="84"/>
      <point x="50" y="84" type="curve" smooth="yes"/>
      <point x="-16" y="84" type="line" smooth="yes"/>
      <point x="-32" y="84"/>
      <point x="-39" y="63"/>
      <point x="-39" y="42" type="curve" smooth="yes"/>
      <point x="-39" y="21"/>
      <point x="-31" y="0"/>
    </contour>
  </outline>
</glyph>
<glyph name="u10B8A.medi" format="2">
  <advance width="370"/>
  <outline>
    <contour>
      <point x="-16" y="0" type="curve" smooth="yes"/>
      <point x="21" y="0" type="line" smooth="yes"/>
      <point x="87" y="0"/>
      <point x="147" y="13"/>
      <point x="185" y="47" type="curve"/>
      <point x="223" y="13"/>
      <point x="282" y="0"/>
      <point x="339" y="0" type="curve" smooth="yes"/>
      <point x="385" y="0" type="line" smooth="yes"/>
      <point x="400" y="0"/>
      <point x="409" y="21"/>
      <point x="409" y="42" type="curve" smooth="yes"/>
      <point x="409" y="63"/>
      <point x="401" y="84"/>
      <point x="385" y="84" type="curve" smooth="yes"/>
      <point x="336" y="84" type="line" smooth="yes"/>
      <point x="252" y="84"/>
      <point x="223" y="118"/>
      <point x="221" y="196" type="curve" smooth="yes"/>
      <point x="220" y="236"/>
      <point x="219" y="286"/>
      <point x="219" y="355" type="curve" smooth="yes"/>
      <point x="219" y="415"/>
      <point x="224" y="500"/>
      <point x="228" y="561" type="curve" smooth="yes"/>
      <point x="229" y="582"/>
      <point x="230" y="592"/>
      <point x="230" y="602" type="curve" smooth="yes"/>
      <point x="230" y="617"/>
      <point x="208" y="625"/>
      <point x="187" y="625" type="curve" smooth="yes"/>
      <point x="165" y="625"/>
      <point x="146" y="617"/>
      <point x="142" y="602" type="curve" smooth="yes"/>
      <point x="133" y="568"/>
      <point x="129" y="479"/>
      <point x="129" y="362" type="curve" smooth="yes"/>
      <point x="129" y="321"/>
      <point x="129" y="265"/>
      <point x="132" y="220" type="curve" smooth="yes"/>
      <point x="134" y="191"/>
      <point x="134" y="168"/>
      <point x="134" y="157" type="curve" smooth="yes"/>
      <point x="134" y="98"/>
      <point x="77" y="84"/>
      <point x="31" y="84" type="curve" smooth="yes"/>
      <point x="-16" y="84" type="line" smooth="yes"/>
      <point x="-32" y="84"/>
      <point x="-39" y="63"/>
      <point x="-39" y="42" type="curve" smooth="yes"/>
      <point x="-39" y="21"/>
      <point x="-31" y="0"/>
    </contour>
  </outline>
</glyph>
<glyph name="u10B8B.medi" format="2">
  <advance width="530"/>
  <outline>
    <contour>
      <point x="233" y="-279" type="curve" smooth="yes"/>
      <point x="268" y="-279"/>
      <point x="305" y="-256"/>
      <point x="357" y="-204" type="curve" smooth="yes"/>
      <point x="442" y="-118" type="line" smooth="yes"/>
      <point x="486" y="-74"/>
      <point x="515" y="-31"/>
      <point x="515" y="8" type="curve" smooth="yes"/>
      <point x="515" y="83"/>
      <point x="413" y="84"/>
      <point x="388" y="84" type="curve" smooth="yes"/>
      <point x="190" y="84" type="line"/>
      <point x="191" y="254"/>
      <point x="205" y="425"/>
      <point x="214" y="523" type="curve" smooth="yes"/>
      <point x="218" y="563"/>
      <point x="220" y="591"/>
      <point x="220" y="602" type="curve" smooth="yes"/>
      <point x="220" y="618"/>
      <point x="198" y="625"/>
      <point x="177" y="625" type="curve" smooth="yes"/>
      <point x="154" y="625"/>
      <point x="135" y="617"/>
      <point x="132" y="602" type="curve" smooth="yes"/>
      <point x="125" y="572"/>
      <point x="104" y="260"/>
      <point x="103" y="84" type="curve"/>
      <point x="61" y="84" type="line" smooth="yes"/>
      <point x="37" y="84"/>
      <point x="24" y="63"/>
      <point x="24" y="42" type="curve" smooth="yes"/>
      <point x="24" y="2"/>
      <point x="46" y="0"/>
      <point x="61" y="0" type="curve" smooth="yes"/>
      <point x="105" y="0" type="line"/>
      <point x="115" y="-107"/>
      <point x="147" y="-279"/>
    </contour>
    <contour>
      <point x="249" y="-189" type="curve" smooth="yes"/>
      <point x="220" y="-189"/>
      <point x="200" y="-89"/>
      <point x="193" y="0" type="curve"/>
      <point x="348" y="0" type="line" smooth="yes"/>
      <point x="393" y="0"/>
      <point x="419" y="-3"/>
      <point x="419" y="-18" type="curve" smooth="yes"/>
      <point x="419" y="-38"/>
      <point x="389" y="-69"/>
      <point x="367" y="-91" type="curve" smooth="yes"/>
      <point x="309" y="-148" type="line" smooth="yes"/>
      <point x="289" y="-167"/>
      <point x="264" y="-189"/>
    </contour>
    <contour>
      <point x="-16" y="0" type="curve" smooth="yes"/>
      <point x="56" y="0" type="line"/>
      <point x="56" y="84" type="line"/>
      <point x="-16" y="84" type="line" smooth="yes"/>
      <point x="-32" y="84"/>
      <point x="-39" y="63"/>
      <point x="-39" y="42" type="curve" smooth="yes"/>
      <point x="-39" y="21"/>
      <point x="-31" y="0"/>
    </contour>
    <contour>
      <point x="371" y="0" type="line"/>
      <point x="545" y="0" type="line" smooth="yes"/>
      <point x="560" y="0"/>
      <point x="569" y="21"/>
      <point x="569" y="42" type="curve" smooth="yes"/>
      <point x="569" y="63"/>
      <point x="561" y="84"/>
      <point x="545" y="84" type="curve" smooth="yes"/>
      <point x="371" y="84" type="line"/>
    </contour>
  </outline>
</glyph>
<glyph name="u10B8C.fina" format="2">
  <advance width="324"/>
  <outline>
    <contour>
      <point x="371" y="-269" type="curve" smooth="yes"/>
      <point x="485" y="-269"/>
      <point x="605" y="-243"/>
      <point x="630" y="-236" type="curve" smooth="yes"/>
      <point x="645" y="-232"/>
      <point x="653" y="-218"/>
      <point x="653" y="-197" type="curve" smooth="yes"/>
      <point x="653" y="-176"/>
      <point x="642" y="-160"/>
      <point x="617" y="-160" type="curve" smooth="yes"/>
      <point x="602" y="-160"/>
      <point x="577" y="-162"/>
      <point x="544" y="-168" type="curve" smooth="yes"/>
      <point x="495" y="-177"/>
      <point x="432" y="-185"/>
      <point x="377" y="-185" type="curve" smooth="yes"/>
      <point x="249" y="-185"/>
      <point x="161" y="-160"/>
      <point x="161" y="-70" type="curve" smooth="yes"/>
      <point x="161" y="59"/>
      <point x="165" y="189"/>
      <point x="172" y="318" type="curve"/>
      <point x="172" y="319" type="line"/>
      <point x="172" y="335"/>
      <point x="150" y="341"/>
      <point x="131" y="341" type="curve" smooth="yes"/>
      <point x="107" y="341"/>
      <point x="85" y="332"/>
      <point x="84" y="318" type="curve" smooth="yes"/>
      <point x="75" y="193"/>
      <point x="73" y="63"/>
      <point x="73" y="-76" type="curve"/>
      <point x="73" y="-207"/>
      <point x="154" y="-269"/>
    </contour>
    <contour>
      <point x="118" y="0" type="line"/>
      <point x="341" y="0" type="line" smooth="yes"/>
      <point x="356" y="0"/>
      <point x="365" y="21"/>
      <point x="365" y="42" type="curve" smooth="yes"/>
      <point x="365" y="63"/>
      <point x="357" y="84"/>
      <point x="341" y="84" type="curve" smooth="yes"/>
      <point x="118" y="84" type="line"/>
    </contour>
  </outline>
</glyph>
<glyph name="u10B8C_alt2.fina" format="2">
  <advance width="324"/>
  <outline>
    <contour>
      <point x="118" y="0" type="line"/>
      <point x="341" y="0" type="line" smooth="yes"/>
      <point x="356" y="0"/>
      <point x="365" y="21"/>
      <point x="365" y="42" type="curve" smooth="yes"/>
      <point x="365" y="63"/>
      <point x="357" y="84"/>
      <point x="341" y="84" type="curve" smooth="yes"/>
      <point x="118" y="84" type="line"/>
    </contour>
    <contour>
      <point x="371" y="-551" type="curve" smooth="yes"/>
      <point x="485" y="-551"/>
      <point x="605" y="-525"/>
      <point x="630" y="-518" type="curve" smooth="yes"/>
      <point x="645" y="-514"/>
      <point x="653" y="-500"/>
      <point x="653" y="-479" type="curve" smooth="yes"/>
      <point x="653" y="-458"/>
      <point x="642" y="-442"/>
      <point x="617" y="-442" type="curve" smooth="yes"/>
      <point x="602" y="-442"/>
      <point x="577" y="-444"/>
      <point x="544" y="-450" type="curve" smooth="yes"/>
      <point x="495" y="-459"/>
      <point x="432" y="-467"/>
      <point x="377" y="-467" type="curve" smooth="yes"/>
      <point x="249" y="-467"/>
      <point x="161" y="-423"/>
      <point x="161" y="-263" type="curve" smooth="yes"/>
      <point x="161" y="-70"/>
      <point x="165" y="123"/>
      <point x="172" y="316" type="curve"/>
      <point x="172" y="317" type="line"/>
      <point x="172" y="333"/>
      <point x="150" y="339"/>
      <point x="131" y="339" type="curve" smooth="yes"/>
      <point x="107" y="339"/>
      <point x="85" y="330"/>
      <point x="84" y="316" type="curve" smooth="yes"/>
      <point x="73" y="166"/>
      <point x="73" y="-63"/>
      <point x="73" y="-269" type="curve" smooth="yes"/>
      <point x="73" y="-460"/>
      <point x="154" y="-551"/>
    </contour>
  </outline>
</glyph>
<glyph name="u10B8C_alt2" format="2">
  <advance width="576"/>
  <outline>
    <contour>
      <point x="371" y="-521" type="curve" smooth="yes"/>
      <point x="485" y="-521"/>
      <point x="605" y="-495"/>
      <point x="630" y="-488" type="curve" smooth="yes"/>
      <point x="645" y="-484"/>
      <point x="653" y="-470"/>
      <point x="653" y="-449" type="curve" smooth="yes"/>
      <point x="653" y="-428"/>
      <point x="642" y="-412"/>
      <point x="617" y="-412" type="curve" smooth="yes"/>
      <point x="602" y="-412"/>
      <point x="577" y="-414"/>
      <point x="544" y="-420" type="curve" smooth="yes"/>
      <point x="495" y="-429"/>
      <point x="432" y="-437"/>
      <point x="377" y="-437" type="curve" smooth="yes"/>
      <point x="235" y="-437"/>
      <point x="161" y="-391"/>
      <point x="161" y="-211" type="curve" smooth="yes"/>
      <point x="161" y="-2"/>
      <point x="165" y="207"/>
      <point x="172" y="416" type="curve" smooth="yes"/>
      <point x="172" y="417" type="line"/>
      <point x="172" y="433"/>
      <point x="150" y="439"/>
      <point x="131" y="439" type="curve" smooth="yes"/>
      <point x="107" y="439"/>
      <point x="85" y="430"/>
      <point x="84" y="416" type="curve" smooth="yes"/>
      <point x="75" y="215"/>
      <point x="73" y="6"/>
      <point x="73" y="-217" type="curve" smooth="yes"/>
      <point x="73" y="-423"/>
      <point x="154" y="-521"/>
    </contour>
  </outline>
</glyph>
<glyph name="u10B8D.init" format="2">
  <advance width="756"/>
  <outline>
    <contour>
      <point x="485" y="-12" type="curve" smooth="yes"/>
      <point x="632" y="-12"/>
      <point x="698" y="77"/>
      <point x="698" y="192" type="curve" smooth="yes"/>
      <point x="698" y="313"/>
      <point x="624" y="398"/>
      <point x="494" y="398" type="curve" smooth="yes"/>
      <point x="440" y="398"/>
      <point x="408" y="383"/>
      <point x="408" y="347" type="curve" smooth="yes"/>
      <point x="408" y="325"/>
      <point x="422" y="305"/>
      <point x="447" y="305" type="curve" smooth="yes"/>
      <point x="465" y="305"/>
      <point x="475" y="307"/>
      <point x="484" y="310" type="curve" smooth="yes"/>
      <point x="491" y="313"/>
      <point x="496" y="314"/>
      <point x="503" y="314" type="curve" smooth="yes"/>
      <point x="572" y="314"/>
      <point x="610" y="267"/>
      <point x="610" y="199" type="curve" smooth="yes"/>
      <point x="610" y="121"/>
      <point x="576" y="73"/>
      <point x="492" y="73" type="curve" smooth="yes"/>
      <point x="418" y="73"/>
      <point x="361" y="104"/>
      <point x="332" y="218" type="curve"/>
      <point x="322" y="332"/>
      <point x="249" y="398"/>
      <point x="129" y="398" type="curve" smooth="yes"/>
      <point x="76" y="398"/>
      <point x="44" y="383"/>
      <point x="44" y="347" type="curve" smooth="yes"/>
      <point x="44" y="325"/>
      <point x="58" y="305"/>
      <point x="83" y="305" type="curve" smooth="yes"/>
      <point x="102" y="305"/>
      <point x="112" y="308"/>
      <point x="121" y="311" type="curve" smooth="yes"/>
      <point x="128" y="313"/>
      <point x="132" y="314"/>
      <point x="142" y="314" type="curve" smooth="yes"/>
      <point x="198" y="314"/>
      <point x="246" y="284"/>
      <point x="246" y="202" type="curve" smooth="yes"/>
      <point x="246" y="117"/>
      <point x="165" y="99"/>
      <point x="107" y="91" type="curve" smooth="yes"/>
      <point x="85" y="88"/>
      <point x="45" y="85"/>
      <point x="14" y="84" type="curve" smooth="yes"/>
      <point x="-2" y="83"/>
      <point x="-15" y="63"/>
      <point x="-15" y="42" type="curve" smooth="yes"/>
      <point x="-15" y="21"/>
      <point x="-6" y="0"/>
      <point x="9" y="0" type="curve" smooth="yes"/>
      <point x="37" y="0"/>
      <point x="71" y="3"/>
      <point x="127" y="9" type="curve" smooth="yes"/>
      <point x="203" y="17"/>
      <point x="259" y="43"/>
      <point x="294" y="82" type="curve"/>
      <point x="323" y="32"/>
      <point x="382" y="-12"/>
    </contour>
    <contour>
      <point x="-16" y="0" type="curve" smooth="yes"/>
      <point x="32" y="0" type="line"/>
      <point x="32" y="84" type="line"/>
      <point x="-16" y="84" type="line" smooth="yes"/>
      <point x="-32" y="84"/>
      <point x="-39" y="63"/>
      <point x="-39" y="42" type="curve" smooth="yes"/>
      <point x="-39" y="21"/>
      <point x="-31" y="0"/>
    </contour>
  </outline>
</glyph>
<glyph name="u10B8F.fina" format="2">
  <advance width="645"/>
  <outline>
    <contour>
      <point x="451" y="0" type="line"/>
      <point x="674" y="0" type="line" smooth="yes"/>
      <point x="689" y="0"/>
      <point x="698" y="21"/>
      <point x="698" y="42" type="curve" smooth="yes"/>
      <point x="698" y="63"/>
      <point x="690" y="84"/>
      <point x="674" y="84" type="curve" smooth="yes"/>
      <point x="451" y="84" type="line"/>
    </contour>
    <contour>
      <point x="320" y="-200" type="curve" smooth="yes"/>
      <point x="449" y="-200"/>
      <point x="575" y="-170"/>
      <point x="600" y="-163" type="curve" smooth="yes"/>
      <point x="615" y="-159"/>
      <point x="623" y="-145"/>
      <point x="623" y="-124" type="curve" smooth="yes"/>
      <point x="623" y="-103"/>
      <point x="611" y="-90"/>
      <point x="588" y="-90" type="curve" smooth="yes"/>
      <point x="567" y="-90"/>
      <point x="546" y="-93"/>
      <point x="521" y="-98" type="curve" smooth="yes"/>
      <point x="480" y="-107"/>
      <point x="427" y="-116"/>
      <point x="339" y="-116" type="curve" smooth="yes"/>
      <point x="180" y="-116"/>
      <point x="134" y="-78"/>
      <point x="134" y="38" type="curve" smooth="yes"/>
      <point x="134" y="60"/>
      <point x="136" y="88"/>
      <point x="139" y="115" type="curve" smooth="yes"/>
      <point x="161" y="304" type="line"/>
      <point x="153" y="304" type="line"/>
      <point x="160" y="254"/>
      <point x="175" y="193"/>
      <point x="184" y="158" type="curve" smooth="yes"/>
      <point x="208" y="63"/>
      <point x="249" y="-12"/>
      <point x="369" y="-12" type="curve" smooth="yes"/>
      <point x="525" y="-12"/>
      <point x="576" y="64"/>
      <point x="576" y="207" type="curve" smooth="yes"/>
      <point x="576" y="370"/>
      <point x="542" y="410"/>
      <point x="500" y="410" type="curve" smooth="yes"/>
      <point x="434" y="410"/>
      <point x="372" y="322"/>
      <point x="372" y="268" type="curve" smooth="yes"/>
      <point x="372" y="252"/>
      <point x="381" y="226"/>
      <point x="404" y="226" type="curve" smooth="yes"/>
      <point x="419" y="226"/>
      <point x="432" y="233"/>
      <point x="444" y="241" type="curve" smooth="yes"/>
      <point x="454" y="248"/>
      <point x="463" y="254"/>
      <point x="473" y="254" type="curve" smooth="yes"/>
      <point x="480" y="254"/>
      <point x="488" y="250"/>
      <point x="488" y="182" type="curve" smooth="yes"/>
      <point x="488" y="115"/>
      <point x="464" y="73"/>
      <point x="377" y="73" type="curve" smooth="yes"/>
      <point x="299" y="73"/>
      <point x="284" y="118"/>
      <point x="255" y="226" type="curve" smooth="yes"/>
      <point x="207" y="404"/>
      <point x="192" y="429"/>
      <point x="153" y="429" type="curve" smooth="yes"/>
      <point x="115" y="429"/>
      <point x="92" y="384"/>
      <point x="71" y="227" type="curve" smooth="yes"/>
      <point x="55" y="109" type="line" smooth="yes"/>
      <point x="52" y="86"/>
      <point x="49" y="47"/>
      <point x="49" y="19" type="curve" smooth="yes"/>
      <point x="49" y="-147"/>
      <point x="146" y="-200"/>
    </contour>
  </outline>
</glyph>
<glyph name="u10B8F_alt2.fina" format="2">
  <advance width="645"/>
  <outline>
    <contour>
      <point x="451" y="0" type="line"/>
      <point x="674" y="0" type="line" smooth="yes"/>
      <point x="689" y="0"/>
      <point x="698" y="21"/>
      <point x="698" y="42" type="curve" smooth="yes"/>
      <point x="698" y="63"/>
      <point x="690" y="84"/>
      <point x="674" y="84" type="curve" smooth="yes"/>
      <point x="451" y="84" type="line"/>
    </contour>
    <contour>
      <point x="320" y="-420" type="curve" smooth="yes"/>
      <point x="449" y="-420"/>
      <point x="575" y="-390"/>
      <point x="600" y="-383" type="curve" smooth="yes"/>
      <point x="615" y="-379"/>
      <point x="623" y="-365"/>
      <point x="623" y="-344" type="curve" smooth="yes"/>
      <point x="623" y="-323"/>
      <point x="611" y="-310"/>
      <point x="588" y="-310" type="curve" smooth="yes"/>
      <point x="567" y="-310"/>
      <point x="546" y="-313"/>
      <point x="521" y="-318" type="curve" smooth="yes"/>
      <point x="480" y="-326"/>
      <point x="427" y="-336"/>
      <point x="339" y="-336" type="curve" smooth="yes"/>
      <point x="180" y="-336"/>
      <point x="134" y="-278"/>
      <point x="134" y="-99" type="curve" smooth="yes"/>
      <point x="134" y="-69"/>
      <point x="136" y="-31"/>
      <point x="139" y="5" type="curve" smooth="yes"/>
      <point x="165" y="304" type="line"/>
      <point x="153" y="304" type="line"/>
      <point x="160" y="254"/>
      <point x="175" y="193"/>
      <point x="184" y="158" type="curve" smooth="yes"/>
      <point x="208" y="63"/>
      <point x="249" y="-12"/>
      <point x="369" y="-12" type="curve" smooth="yes"/>
      <point x="525" y="-12"/>
      <point x="576" y="64"/>
      <point x="576" y="207" type="curve" smooth="yes"/>
      <point x="576" y="370"/>
      <point x="542" y="410"/>
      <point x="500" y="410" type="curve" smooth="yes"/>
      <point x="434" y="410"/>
      <point x="372" y="322"/>
      <point x="372" y="268" type="curve" smooth="yes"/>
      <point x="372" y="252"/>
      <point x="381" y="226"/>
      <point x="404" y="226" type="curve" smooth="yes"/>
      <point x="419" y="226"/>
      <point x="432" y="233"/>
      <point x="444" y="241" type="curve" smooth="yes"/>
      <point x="454" y="248"/>
      <point x="463" y="254"/>
      <point x="473" y="254" type="curve" smooth="yes"/>
      <point x="480" y="254"/>
      <point x="488" y="250"/>
      <point x="488" y="182" type="curve" smooth="yes"/>
      <point x="488" y="115"/>
      <point x="464" y="73"/>
      <point x="377" y="73" type="curve" smooth="yes"/>
      <point x="299" y="73"/>
      <point x="284" y="118"/>
      <point x="255" y="226" type="curve" smooth="yes"/>
      <point x="207" y="404"/>
      <point x="192" y="429"/>
      <point x="153" y="429" type="curve" smooth="yes"/>
      <point x="115" y="429"/>
      <point x="92" y="368"/>
      <point x="71" y="156" type="curve" smooth="yes"/>
      <point x="55" y="-3" type="line" smooth="yes"/>
      <point x="52" y="-34"/>
      <point x="49" y="-86"/>
      <point x="49" y="-123" type="curve" smooth="yes"/>
      <point x="49" y="-348"/>
      <point x="146" y="-420"/>
    </contour>
  </outline>
</glyph>
<glyph name="u10B8F_alt2" format="2">
  <advance width="645"/>
  <outline>
    <contour>
      <point x="320" y="-490" type="curve" smooth="yes"/>
      <point x="449" y="-490"/>
      <point x="575" y="-460"/>
      <point x="600" y="-453" type="curve" smooth="yes"/>
      <point x="615" y="-449"/>
      <point x="623" y="-435"/>
      <point x="623" y="-414" type="curve" smooth="yes"/>
      <point x="623" y="-393"/>
      <point x="611" y="-380"/>
      <point x="588" y="-380" type="curve" smooth="yes"/>
      <point x="567" y="-380"/>
      <point x="546" y="-383"/>
      <point x="521" y="-388" type="curve" smooth="yes"/>
      <point x="480" y="-397"/>
      <point x="427" y="-406"/>
      <point x="339" y="-406" type="curve" smooth="yes"/>
      <point x="180" y="-406"/>
      <point x="134" y="-341"/>
      <point x="134" y="-139" type="curve" smooth="yes"/>
      <point x="134" y="-106"/>
      <point x="136" y="-64"/>
      <point x="139" y="-25" type="curve" smooth="yes"/>
      <point x="165" y="314" type="line"/>
      <point x="153" y="314" type="line"/>
      <point x="160" y="264"/>
      <point x="175" y="203"/>
      <point x="184" y="168" type="curve" smooth="yes"/>
      <point x="208" y="73"/>
      <point x="249" y="-2"/>
      <point x="369" y="-2" type="curve" smooth="yes"/>
      <point x="525" y="-2"/>
      <point x="576" y="74"/>
      <point x="576" y="217" type="curve" smooth="yes"/>
      <point x="576" y="380"/>
      <point x="542" y="420"/>
      <point x="500" y="420" type="curve" smooth="yes"/>
      <point x="434" y="420"/>
      <point x="372" y="332"/>
      <point x="372" y="278" type="curve" smooth="yes"/>
      <point x="372" y="262"/>
      <point x="381" y="236"/>
      <point x="404" y="236" type="curve" smooth="yes"/>
      <point x="419" y="236"/>
      <point x="432" y="243"/>
      <point x="444" y="251" type="curve" smooth="yes"/>
      <point x="454" y="258"/>
      <point x="463" y="264"/>
      <point x="473" y="264" type="curve" smooth="yes"/>
      <point x="480" y="264"/>
      <point x="488" y="260"/>
      <point x="488" y="192" type="curve" smooth="yes"/>
      <point x="488" y="125"/>
      <point x="464" y="83"/>
      <point x="377" y="83" type="curve" smooth="yes"/>
      <point x="299" y="83"/>
      <point x="284" y="128"/>
      <point x="255" y="236" type="curve" smooth="yes"/>
      <point x="207" y="414"/>
      <point x="192" y="439"/>
      <point x="153" y="439" type="curve" smooth="yes"/>
      <point x="115" y="439"/>
      <point x="92" y="372"/>
      <point x="71" y="140" type="curve" smooth="yes"/>
      <point x="55" y="-34" type="line" smooth="yes"/>
      <point x="52" y="-68"/>
      <point x="49" y="-125"/>
      <point x="49" y="-165" type="curve" smooth="yes"/>
      <point x="49" y="-411"/>
      <point x="146" y="-490"/>
    </contour>
  </outline>
</glyph>
<glyph name="u10B90.fina" format="2">
  <advance width="890"/>
  <outline>
    <contour>
      <point x="538" y="-12" type="curve" smooth="yes"/>
      <point x="640" y="-12"/>
      <point x="714" y="17"/>
      <point x="751" y="76" type="curve"/>
      <point x="723" y="81" type="line"/>
      <point x="753" y="21"/>
      <point x="804" y="0"/>
      <point x="878" y="0" type="curve" smooth="yes"/>
      <point x="905" y="0" type="line" smooth="yes"/>
      <point x="920" y="0"/>
      <point x="929" y="21"/>
      <point x="929" y="42" type="curve" smooth="yes"/>
      <point x="929" y="63"/>
      <point x="921" y="84"/>
      <point x="905" y="84" type="curve" smooth="yes"/>
      <point x="884" y="84" type="line" smooth="yes"/>
      <point x="836" y="84"/>
      <point x="801" y="86"/>
      <point x="777" y="166" type="curve"/>
      <point x="774" y="227"/>
      <point x="751" y="314"/>
      <point x="727" y="380" type="curve" smooth="yes"/>
      <point x="709" y="431"/>
      <point x="671" y="469"/>
      <point x="623" y="469" type="curve" smooth="yes"/>
      <point x="559" y="469"/>
      <point x="471" y="385"/>
      <point x="471" y="349" type="curve" smooth="yes"/>
      <point x="471" y="327"/>
      <point x="485" y="316"/>
      <point x="510" y="316" type="curve" smooth="yes"/>
      <point x="523" y="316"/>
      <point x="543" y="332"/>
      <point x="562" y="350" type="curve" smooth="yes"/>
      <point x="580" y="367"/>
      <point x="600" y="385"/>
      <point x="617" y="385" type="curve" smooth="yes"/>
      <point x="639" y="385"/>
      <point x="651" y="357"/>
      <point x="659" y="333" type="curve" smooth="yes"/>
      <point x="683" y="260"/>
      <point x="691" y="211"/>
      <point x="691" y="158" type="curve" smooth="yes"/>
      <point x="691" y="102"/>
      <point x="646" y="71"/>
      <point x="544" y="71" type="curve" smooth="yes"/>
      <point x="474" y="71"/>
      <point x="421" y="81"/>
      <point x="377" y="99" type="curve"/>
      <point x="384" y="115"/>
      <point x="387" y="134"/>
      <point x="387" y="154" type="curve" smooth="yes"/>
      <point x="387" y="214"/>
      <point x="358" y="310"/>
      <point x="334" y="380" type="curve" smooth="yes"/>
      <point x="316" y="431"/>
      <point x="279" y="469"/>
      <point x="230" y="469" type="curve" smooth="yes"/>
      <point x="169" y="469"/>
      <point x="79" y="390"/>
      <point x="79" y="349" type="curve" smooth="yes"/>
      <point x="79" y="327"/>
      <point x="92" y="316"/>
      <point x="113" y="316" type="curve" smooth="yes"/>
      <point x="133" y="316"/>
      <point x="152" y="333"/>
      <point x="170" y="350" type="curve" smooth="yes"/>
      <point x="189" y="368"/>
      <point x="208" y="385"/>
      <point x="225" y="385" type="curve" smooth="yes"/>
      <point x="246" y="385"/>
      <point x="258" y="357"/>
      <point x="266" y="333" type="curve" smooth="yes"/>
      <point x="291" y="260"/>
      <point x="299" y="211"/>
      <point x="299" y="158" type="curve" smooth="yes"/>
      <point x="299" y="86"/>
      <point x="236" y="76"/>
      <point x="164" y="76" type="curve" smooth="yes"/>
      <point x="125" y="76"/>
      <point x="104" y="79"/>
      <point x="90" y="81" type="curve" smooth="yes"/>
      <point x="76" y="83"/>
      <point x="68" y="84"/>
      <point x="59" y="84" type="curve" smooth="yes"/>
      <point x="36" y="84"/>
      <point x="24" y="67"/>
      <point x="24" y="42" type="curve" smooth="yes"/>
      <point x="24" y="25"/>
      <point x="39" y="5"/>
      <point x="52" y="1" type="curve" smooth="yes"/>
      <point x="58" y="-1"/>
      <point x="74" y="-3"/>
      <point x="85" y="-4" type="curve" smooth="yes"/>
      <point x="108" y="-6"/>
      <point x="137" y="-8"/>
      <point x="165" y="-8" type="curve" smooth="yes"/>
      <point x="245" y="-8"/>
      <point x="302" y="10"/>
      <point x="339" y="51" type="curve"/>
      <point x="303" y="50" type="line"/>
      <point x="359" y="5"/>
      <point x="456" y="-12"/>
    </contour>
  </outline>
</glyph>
<glyph name="u10B90.init" format="2">
  <advance width="1016"/>
  <outline>
    <contour>
      <point x="846" y="-13" type="curve" smooth="yes"/>
      <point x="906" y="-13"/>
      <point x="958" y="14"/>
      <point x="968" y="20" type="curve" smooth="yes"/>
      <point x="980" y="27"/>
      <point x="992" y="36"/>
      <point x="992" y="62" type="curve" smooth="yes"/>
      <point x="992" y="83"/>
      <point x="984" y="104"/>
      <point x="968" y="104" type="curve" smooth="yes"/>
      <point x="964" y="104"/>
      <point x="957" y="101"/>
      <point x="946" y="96" type="curve" smooth="yes"/>
      <point x="923" y="86"/>
      <point x="883" y="71"/>
      <point x="840" y="71" type="curve" smooth="yes"/>
      <point x="788" y="71"/>
      <point x="756" y="86"/>
      <point x="733" y="189" type="curve"/>
      <point x="726" y="248"/>
      <point x="705" y="323"/>
      <point x="685" y="380" type="curve" smooth="yes"/>
      <point x="667" y="431"/>
      <point x="629" y="469"/>
      <point x="581" y="469" type="curve" smooth="yes"/>
      <point x="517" y="469"/>
      <point x="429" y="385"/>
      <point x="429" y="349" type="curve" smooth="yes"/>
      <point x="429" y="327"/>
      <point x="443" y="316"/>
      <point x="468" y="316" type="curve" smooth="yes"/>
      <point x="484" y="316"/>
      <point x="503" y="334"/>
      <point x="521" y="351" type="curve" smooth="yes"/>
      <point x="541" y="369"/>
      <point x="559" y="385"/>
      <point x="575" y="385" type="curve" smooth="yes"/>
      <point x="597" y="385"/>
      <point x="609" y="357"/>
      <point x="617" y="333" type="curve" smooth="yes"/>
      <point x="641" y="260"/>
      <point x="649" y="211"/>
      <point x="649" y="158" type="curve" smooth="yes"/>
      <point x="649" y="102"/>
      <point x="604" y="71"/>
      <point x="502" y="71" type="curve" smooth="yes"/>
      <point x="432" y="71"/>
      <point x="379" y="81"/>
      <point x="335" y="99" type="curve"/>
      <point x="342" y="115"/>
      <point x="345" y="134"/>
      <point x="345" y="154" type="curve" smooth="yes"/>
      <point x="345" y="214"/>
      <point x="317" y="310"/>
      <point x="292" y="380" type="curve" smooth="yes"/>
      <point x="274" y="431"/>
      <point x="237" y="469"/>
      <point x="188" y="469" type="curve" smooth="yes"/>
      <point x="124" y="469"/>
      <point x="37" y="385"/>
      <point x="37" y="349" type="curve" smooth="yes"/>
      <point x="37" y="327"/>
      <point x="50" y="316"/>
      <point x="76" y="316" type="curve" smooth="yes"/>
      <point x="91" y="316"/>
      <point x="110" y="333"/>
      <point x="128" y="350" type="curve" smooth="yes"/>
      <point x="147" y="368"/>
      <point x="166" y="385"/>
      <point x="183" y="385" type="curve" smooth="yes"/>
      <point x="204" y="385"/>
      <point x="216" y="357"/>
      <point x="224" y="333" type="curve" smooth="yes"/>
      <point x="248" y="260"/>
      <point x="257" y="211"/>
      <point x="257" y="158" type="curve" smooth="yes"/>
      <point x="257" y="86"/>
      <point x="194" y="76"/>
      <point x="122" y="76" type="curve" smooth="yes"/>
      <point x="83" y="76"/>
      <point x="62" y="79"/>
      <point x="45" y="82" type="curve" smooth="yes"/>
      <point x="35" y="84"/>
      <point x="26" y="84"/>
      <point x="17" y="84" type="curve" smooth="yes"/>
      <point x="-6" y="84"/>
      <point x="-18" y="67"/>
      <point x="-18" y="42" type="curve" smooth="yes"/>
      <point x="-18" y="25"/>
      <point x="-8" y="2"/>
      <point x="13" y="0" type="curve" smooth="yes"/>
      <point x="22" y="-1"/>
      <point x="27" y="-1"/>
      <point x="44" y="-3" type="curve" smooth="yes"/>
      <point x="67" y="-6"/>
      <point x="95" y="-8"/>
      <point x="123" y="-8" type="curve" smooth="yes"/>
      <point x="191" y="-8"/>
      <point x="244" y="5"/>
      <point x="280" y="29" type="curve"/>
      <point x="337" y="1"/>
      <point x="423" y="-12"/>
      <point x="496" y="-12" type="curve" smooth="yes"/>
      <point x="596" y="-12"/>
      <point x="669" y="16"/>
      <point x="707" y="80" type="curve"/>
      <point x="680" y="87" type="line"/>
      <point x="711" y="9"/>
      <point x="763" y="-13"/>
    </contour>
    <contour>
      <point x="-16" y="0" type="curve" smooth="yes"/>
      <point x="32" y="0" type="line"/>
      <point x="32" y="84" type="line"/>
      <point x="-16" y="84" type="line" smooth="yes"/>
      <point x="-32" y="84"/>
      <point x="-39" y="63"/>
      <point x="-39" y="42" type="curve" smooth="yes"/>
      <point x="-39" y="21"/>
      <point x="-31" y="0"/>
    </contour>
  </outline>
</glyph>
<glyph name="u10B90.medi" format="2">
  <advance width="847"/>
  <outline>
    <contour>
      <point x="496" y="-12" type="curve" smooth="yes"/>
      <point x="598" y="-12"/>
      <point x="671" y="16"/>
      <point x="708" y="76" type="curve"/>
      <point x="680" y="80" type="line"/>
      <point x="711" y="21"/>
      <point x="761" y="0"/>
      <point x="835" y="0" type="curve" smooth="yes"/>
      <point x="862" y="0" type="line" smooth="yes"/>
      <point x="877" y="0"/>
      <point x="886" y="21"/>
      <point x="886" y="42" type="curve" smooth="yes"/>
      <point x="886" y="63"/>
      <point x="878" y="84"/>
      <point x="862" y="84" type="curve" smooth="yes"/>
      <point x="841" y="84" type="line" smooth="yes"/>
      <point x="794" y="84"/>
      <point x="759" y="86"/>
      <point x="735" y="162" type="curve"/>
      <point x="733" y="223"/>
      <point x="708" y="313"/>
      <point x="685" y="380" type="curve" smooth="yes"/>
      <point x="667" y="431"/>
      <point x="629" y="469"/>
      <point x="581" y="469" type="curve" smooth="yes"/>
      <point x="517" y="469"/>
      <point x="429" y="385"/>
      <point x="429" y="349" type="curve" smooth="yes"/>
      <point x="429" y="327"/>
      <point x="443" y="316"/>
      <point x="468" y="316" type="curve" smooth="yes"/>
      <point x="484" y="316"/>
      <point x="502" y="332"/>
      <point x="521" y="350" type="curve" smooth="yes"/>
      <point x="539" y="367"/>
      <point x="559" y="385"/>
      <point x="575" y="385" type="curve" smooth="yes"/>
      <point x="597" y="385"/>
      <point x="609" y="356"/>
      <point x="617" y="333" type="curve" smooth="yes"/>
      <point x="641" y="261"/>
      <point x="649" y="211"/>
      <point x="649" y="158" type="curve" smooth="yes"/>
      <point x="649" y="102"/>
      <point x="604" y="71"/>
      <point x="502" y="71" type="curve" smooth="yes"/>
      <point x="432" y="71"/>
      <point x="379" y="81"/>
      <point x="335" y="99" type="curve"/>
      <point x="341" y="115"/>
      <point x="345" y="133"/>
      <point x="345" y="154" type="curve" smooth="yes"/>
      <point x="345" y="214"/>
      <point x="317" y="310"/>
      <point x="292" y="380" type="curve" smooth="yes"/>
      <point x="274" y="431"/>
      <point x="237" y="469"/>
      <point x="188" y="469" type="curve" smooth="yes"/>
      <point x="124" y="469"/>
      <point x="37" y="385"/>
      <point x="37" y="349" type="curve" smooth="yes"/>
      <point x="37" y="327"/>
      <point x="50" y="316"/>
      <point x="76" y="316" type="curve" smooth="yes"/>
      <point x="91" y="316"/>
      <point x="110" y="333"/>
      <point x="129" y="351" type="curve" smooth="yes"/>
      <point x="147" y="368"/>
      <point x="166" y="385"/>
      <point x="183" y="385" type="curve" smooth="yes"/>
      <point x="204" y="385"/>
      <point x="216" y="357"/>
      <point x="224" y="333" type="curve" smooth="yes"/>
      <point x="248" y="260"/>
      <point x="257" y="211"/>
      <point x="257" y="158" type="curve" smooth="yes"/>
      <point x="257" y="87"/>
      <point x="147" y="84"/>
      <point x="84" y="84" type="curve" smooth="yes"/>
      <point x="-16" y="84" type="line" smooth="yes"/>
      <point x="-32" y="84"/>
      <point x="-39" y="63"/>
      <point x="-39" y="42" type="curve" smooth="yes"/>
      <point x="-39" y="21"/>
      <point x="-31" y="0"/>
      <point x="-16" y="0" type="curve" smooth="yes"/>
      <point x="66" y="0" type="line" smooth="yes"/>
      <point x="134" y="0"/>
      <point x="236" y="0"/>
      <point x="295" y="56" type="curve"/>
      <point x="256" y="53" type="line"/>
      <point x="311" y="6"/>
      <point x="411" y="-12"/>
    </contour>
  </outline>
</glyph>
<glyph name="u10B91.fina" format="2">
  <advance width="710"/>
  <outline>
    <contour>
      <point x="131" y="-27" type="curve" smooth="yes"/>
      <point x="154" y="-27"/>
      <point x="176" y="-18"/>
      <point x="176" y="-3" type="curve" smooth="yes"/>
      <point x="176" y="7"/>
      <point x="176" y="16"/>
      <point x="177" y="26" type="curve"/>
      <point x="247" y="4"/>
      <point x="315" y="-10"/>
      <point x="406" y="-10" type="curve" smooth="yes"/>
      <point x="557" y="-10"/>
      <point x="661" y="67"/>
      <point x="661" y="188" type="curve" smooth="yes"/>
      <point x="661" y="302"/>
      <point x="588" y="386"/>
      <point x="468" y="386" type="curve" smooth="yes"/>
      <point x="356" y="386"/>
      <point x="254" y="314"/>
      <point x="151" y="208" type="curve"/>
      <point x="168" y="193" type="line"/>
      <point x="162" y="287"/>
      <point x="148" y="355"/>
      <point x="127" y="416" type="curve" smooth="yes"/>
      <point x="121" y="432"/>
      <point x="104" y="439"/>
      <point x="81" y="439" type="curve" smooth="yes"/>
      <point x="61" y="439"/>
      <point x="39" y="433"/>
      <point x="39" y="416" type="curve" smooth="yes"/>
      <point x="39" y="411"/>
      <point x="41" y="402"/>
      <point x="42" y="397" type="curve" smooth="yes"/>
      <point x="68" y="296"/>
      <point x="90" y="205"/>
      <point x="90" y="56" type="curve" smooth="yes"/>
      <point x="90" y="49"/>
      <point x="90" y="41"/>
      <point x="90" y="31" type="curve" smooth="yes"/>
      <point x="89" y="20"/>
      <point x="89" y="7"/>
      <point x="89" y="-3" type="curve" smooth="yes"/>
      <point x="89" y="-20"/>
      <point x="111" y="-27"/>
    </contour>
    <contour>
      <point x="400" y="70" type="curve" smooth="yes"/>
      <point x="319" y="70"/>
      <point x="213" y="95"/>
      <point x="176" y="119" type="curve"/>
      <point x="176" y="123" type="line"/>
      <point x="255" y="223"/>
      <point x="367" y="302"/>
      <point x="458" y="302" type="curve" smooth="yes"/>
      <point x="526" y="302"/>
      <point x="572" y="263"/>
      <point x="572" y="188" type="curve" smooth="yes"/>
      <point x="572" y="120"/>
      <point x="508" y="70"/>
    </contour>
    <contour>
      <point x="502" y="0" type="line"/>
      <point x="725" y="0" type="line" smooth="yes"/>
      <point x="740" y="0"/>
      <point x="749" y="21"/>
      <point x="749" y="42" type="curve" smooth="yes"/>
      <point x="749" y="63"/>
      <point x="741" y="84"/>
      <point x="725" y="84" type="curve" smooth="yes"/>
      <point x="502" y="84" type="line"/>
    </contour>
  </outline>
</glyph>
<glyph name="u10BA9.alt.fina" format="2">
  <advance width="340"/>
  <outline>
    <contour>
      <point x="47" y="0" type="curve" smooth="yes"/>
      <point x="65" y="0" type="line" smooth="yes"/>
      <point x="173" y="0"/>
      <point x="229" y="60"/>
      <point x="246" y="160" type="curve" smooth="yes"/>
      <point x="289" y="406" type="line" smooth="yes"/>
      <point x="290" y="411"/>
      <point x="291" y="417"/>
      <point x="291" y="419" type="curve" smooth="yes"/>
      <point x="291" y="431"/>
      <point x="271" y="439"/>
      <point x="249" y="439" type="curve" smooth="yes"/>
      <point x="229" y="439"/>
      <point x="206" y="433"/>
      <point x="203" y="416" type="curve" smooth="yes"/>
      <point x="157" y="157" type="line" smooth="yes"/>
      <point x="147" y="101"/>
      <point x="122" y="84"/>
      <point x="77" y="84" type="curve" smooth="yes"/>
      <point x="57" y="84" type="line" smooth="yes"/>
      <point x="34" y="84"/>
      <point x="24" y="55"/>
      <point x="24" y="35" type="curve" smooth="yes"/>
      <point x="24" y="13"/>
      <point x="35" y="0"/>
    </contour>
    <contour>
      <point x="64" y="0" type="line"/>
      <point x="356" y="0" type="line" smooth="yes"/>
      <point x="371" y="0"/>
      <point x="379" y="21"/>
      <point x="379" y="42" type="curve" smooth="yes"/>
      <point x="379" y="63"/>
      <point x="372" y="84"/>
      <point x="356" y="84" type="curve" smooth="yes"/>
      <point x="64" y="84" type="line"/>
    </contour>
  </outline>
</glyph>
<glyph name="u10BA9.fina" format="2">
  <advance width="321"/>
  <outline>
    <contour>
      <point x="90" y="-220" type="curve" smooth="yes"/>
      <point x="112" y="-220"/>
      <point x="134" y="-212"/>
      <point x="137" y="-197" type="curve" smooth="yes"/>
      <point x="172" y="0" type="line"/>
      <point x="336" y="0" type="line" smooth="yes"/>
      <point x="352" y="0"/>
      <point x="360" y="21"/>
      <point x="360" y="42" type="curve" smooth="yes"/>
      <point x="360" y="63"/>
      <point x="353" y="84"/>
      <point x="336" y="84" type="curve" smooth="yes"/>
      <point x="187" y="84" type="line"/>
      <point x="245" y="412" type="line" smooth="yes"/>
      <point x="246" y="417"/>
      <point x="246" y="420"/>
      <point x="246" y="421" type="curve" smooth="yes"/>
      <point x="246" y="433"/>
      <point x="227" y="439"/>
      <point x="207" y="439" type="curve" smooth="yes"/>
      <point x="185" y="439"/>
      <point x="161" y="433"/>
      <point x="158" y="417" type="curve" smooth="yes"/>
      <point x="50" y="-192" type="line" smooth="yes"/>
      <point x="49" y="-197"/>
      <point x="49" y="-198"/>
      <point x="49" y="-199" type="curve" smooth="yes"/>
      <point x="49" y="-213"/>
      <point x="69" y="-220"/>
    </contour>
  </outline>
</glyph>
<glyph name="u10BAA.alt.fina" format="2">
  <advance width="656"/>
  <outline>
    <contour>
      <point x="44" y="0" type="curve" smooth="yes"/>
      <point x="381" y="0" type="line" smooth="yes"/>
      <point x="489" y="0"/>
      <point x="544" y="61"/>
      <point x="562" y="161" type="curve" smooth="yes"/>
      <point x="605" y="406" type="line" smooth="yes"/>
      <point x="606" y="411"/>
      <point x="607" y="416"/>
      <point x="607" y="418" type="curve" smooth="yes"/>
      <point x="607" y="431"/>
      <point x="587" y="439"/>
      <point x="564" y="439" type="curve" smooth="yes"/>
      <point x="544" y="439"/>
      <point x="522" y="433"/>
      <point x="519" y="416" type="curve" smooth="yes"/>
      <point x="473" y="157" type="line" smooth="yes"/>
      <point x="463" y="101"/>
      <point x="438" y="84"/>
      <point x="393" y="84" type="curve" smooth="yes"/>
      <point x="206" y="84" type="line"/>
      <point x="217" y="105"/>
      <point x="226" y="131"/>
      <point x="231" y="160" type="curve" smooth="yes"/>
      <point x="275" y="411" type="line" smooth="yes"/>
      <point x="276" y="414"/>
      <point x="276" y="417"/>
      <point x="276" y="418" type="curve" smooth="yes"/>
      <point x="276" y="431"/>
      <point x="256" y="439"/>
      <point x="234" y="439" type="curve" smooth="yes"/>
      <point x="214" y="439"/>
      <point x="191" y="433"/>
      <point x="188" y="416" type="curve" smooth="yes"/>
      <point x="143" y="157" type="line" smooth="yes"/>
      <point x="133" y="101"/>
      <point x="107" y="84"/>
      <point x="63" y="84" type="curve" smooth="yes"/>
      <point x="57" y="84" type="line" smooth="yes"/>
      <point x="31" y="84"/>
      <point x="24" y="58"/>
      <point x="24" y="35" type="curve" smooth="yes"/>
      <point x="24" y="16"/>
      <point x="33" y="0"/>
    </contour>
    <contour>
      <point x="380" y="0" type="line"/>
      <point x="672" y="0" type="line" smooth="yes"/>
      <point x="687" y="0"/>
      <point x="695" y="21"/>
      <point x="695" y="42" type="curve" smooth="yes"/>
      <point x="695" y="63"/>
      <point x="688" y="84"/>
      <point x="672" y="84" type="curve" smooth="yes"/>
      <point x="380" y="84" type="line"/>
    </contour>
  </outline>
</glyph>
<glyph name="u10BAA.fina" format="2">
  <advance width="627"/>
  <outline>
    <contour>
      <point x="90" y="-220" type="curve" smooth="yes"/>
      <point x="112" y="-220"/>
      <point x="134" y="-212"/>
      <point x="137" y="-197" type="curve" smooth="yes"/>
      <point x="172" y="0" type="line"/>
      <point x="352" y="0" type="line" smooth="yes"/>
      <point x="459" y="0"/>
      <point x="514" y="60"/>
      <point x="532" y="160" type="curve" smooth="yes"/>
      <point x="576" y="406" type="line" smooth="yes"/>
      <point x="577" y="411"/>
      <point x="578" y="416"/>
      <point x="578" y="418" type="curve" smooth="yes"/>
      <point x="578" y="431"/>
      <point x="558" y="439"/>
      <point x="535" y="439" type="curve" smooth="yes"/>
      <point x="515" y="439"/>
      <point x="493" y="433"/>
      <point x="490" y="416" type="curve" smooth="yes"/>
      <point x="444" y="157" type="line" smooth="yes"/>
      <point x="434" y="101"/>
      <point x="409" y="84"/>
      <point x="364" y="84" type="curve" smooth="yes"/>
      <point x="187" y="84" type="line"/>
      <point x="244" y="407" type="line" smooth="yes"/>
      <point x="245" y="412"/>
      <point x="246" y="417"/>
      <point x="246" y="419" type="curve" smooth="yes"/>
      <point x="246" y="433"/>
      <point x="227" y="439"/>
      <point x="207" y="439" type="curve" smooth="yes"/>
      <point x="185" y="439"/>
      <point x="161" y="433"/>
      <point x="158" y="417" type="curve" smooth="yes"/>
      <point x="51" y="-187" type="line" smooth="yes"/>
      <point x="50" y="-191"/>
      <point x="49" y="-196"/>
      <point x="49" y="-199" type="curve" smooth="yes"/>
      <point x="49" y="-213"/>
      <point x="69" y="-220"/>
    </contour>
    <contour>
      <point x="351" y="0" type="line"/>
      <point x="643" y="0" type="line" smooth="yes"/>
      <point x="658" y="0"/>
      <point x="666" y="21"/>
      <point x="666" y="42" type="curve" smooth="yes"/>
      <point x="666" y="63"/>
      <point x="659" y="84"/>
      <point x="643" y="84" type="curve" smooth="yes"/>
      <point x="351" y="84" type="line"/>
    </contour>
  </outline>
</glyph>
<glyph name="u10BAB.alt" format="2">
  <advance width="939"/>
  <outline>
    <contour>
      <point x="45" y="0" type="curve" smooth="yes"/>
      <point x="665" y="0" type="line" smooth="yes"/>
      <point x="772" y="0"/>
      <point x="827" y="60"/>
      <point x="845" y="160" type="curve" smooth="yes"/>
      <point x="889" y="411" type="line" smooth="yes"/>
      <point x="890" y="413"/>
      <point x="890" y="417"/>
      <point x="890" y="418" type="curve" smooth="yes"/>
      <point x="890" y="431"/>
      <point x="870" y="439"/>
      <point x="848" y="439" type="curve" smooth="yes"/>
      <point x="828" y="439"/>
      <point x="805" y="433"/>
      <point x="802" y="416" type="curve" smooth="yes"/>
      <point x="756" y="156" type="line" smooth="yes"/>
      <point x="746" y="100"/>
      <point x="721" y="84"/>
      <point x="676" y="84" type="curve" smooth="yes"/>
      <point x="512" y="84" type="line"/>
      <point x="523" y="105"/>
      <point x="532" y="131"/>
      <point x="537" y="160" type="curve" smooth="yes"/>
      <point x="582" y="411" type="line" smooth="yes"/>
      <point x="583" y="416"/>
      <point x="583" y="417"/>
      <point x="583" y="418" type="curve" smooth="yes"/>
      <point x="583" y="431"/>
      <point x="562" y="439"/>
      <point x="540" y="439" type="curve" smooth="yes"/>
      <point x="520" y="439"/>
      <point x="498" y="433"/>
      <point x="495" y="416" type="curve" smooth="yes"/>
      <point x="449" y="157" type="line" smooth="yes"/>
      <point x="439" y="101"/>
      <point x="414" y="84"/>
      <point x="369" y="84" type="curve" smooth="yes"/>
      <point x="206" y="84" type="line"/>
      <point x="217" y="105"/>
      <point x="226" y="131"/>
      <point x="231" y="160" type="curve" smooth="yes"/>
      <point x="275" y="411" type="line" smooth="yes"/>
      <point x="276" y="414"/>
      <point x="276" y="417"/>
      <point x="276" y="418" type="curve" smooth="yes"/>
      <point x="276" y="431"/>
      <point x="256" y="439"/>
      <point x="234" y="439" type="curve" smooth="yes"/>
      <point x="214" y="439"/>
      <point x="191" y="433"/>
      <point x="188" y="416" type="curve" smooth="yes"/>
      <point x="143" y="157" type="line" smooth="yes"/>
      <point x="133" y="101"/>
      <point x="107" y="84"/>
      <point x="63" y="84" type="curve" smooth="yes"/>
      <point x="57" y="84" type="line" smooth="yes"/>
      <point x="31" y="84"/>
      <point x="24" y="58"/>
      <point x="24" y="36" type="curve" smooth="yes"/>
      <point x="24" y="18"/>
      <point x="31" y="0"/>
    </contour>
  </outline>
</glyph>
<glyph name="u10BAC.alt.fina" format="2">
  <advance width="1159"/>
  <outline>
    <contour>
      <point x="47" y="0" type="curve" smooth="yes"/>
      <point x="884" y="0" type="line" smooth="yes"/>
      <point x="992" y="0"/>
      <point x="1046" y="60"/>
      <point x="1064" y="160" type="curve" smooth="yes"/>
      <point x="1109" y="411" type="line" smooth="yes"/>
      <point x="1110" y="415"/>
      <point x="1110" y="417"/>
      <point x="1110" y="418" type="curve" smooth="yes"/>
      <point x="1110" y="431"/>
      <point x="1090" y="439"/>
      <point x="1067" y="439" type="curve" smooth="yes"/>
      <point x="1047" y="439"/>
      <point x="1025" y="433"/>
      <point x="1022" y="416" type="curve" smooth="yes"/>
      <point x="976" y="157" type="line" smooth="yes"/>
      <point x="966" y="101"/>
      <point x="941" y="84"/>
      <point x="896" y="84" type="curve" smooth="yes"/>
      <point x="761" y="84" type="line"/>
      <point x="772" y="105"/>
      <point x="781" y="131"/>
      <point x="786" y="160" type="curve" smooth="yes"/>
      <point x="831" y="411" type="line" smooth="yes"/>
      <point x="832" y="416"/>
      <point x="832" y="417"/>
      <point x="832" y="418" type="curve" smooth="yes"/>
      <point x="832" y="431"/>
      <point x="811" y="439"/>
      <point x="789" y="439" type="curve" smooth="yes"/>
      <point x="769" y="439"/>
      <point x="747" y="433"/>
      <point x="744" y="416" type="curve" smooth="yes"/>
      <point x="698" y="157" type="line" smooth="yes"/>
      <point x="688" y="103"/>
      <point x="664" y="84"/>
      <point x="621" y="84" type="curve" smooth="yes"/>
      <point x="482" y="84" type="line"/>
      <point x="494" y="105"/>
      <point x="503" y="131"/>
      <point x="508" y="160" type="curve" smooth="yes"/>
      <point x="552" y="411" type="line" smooth="yes"/>
      <point x="553" y="414"/>
      <point x="553" y="417"/>
      <point x="553" y="418" type="curve" smooth="yes"/>
      <point x="553" y="431"/>
      <point x="533" y="439"/>
      <point x="511" y="439" type="curve" smooth="yes"/>
      <point x="491" y="439"/>
      <point x="468" y="433"/>
      <point x="465" y="416" type="curve" smooth="yes"/>
      <point x="419" y="157" type="line" smooth="yes"/>
      <point x="409" y="103"/>
      <point x="386" y="84"/>
      <point x="343" y="84" type="curve" smooth="yes"/>
      <point x="206" y="84" type="line"/>
      <point x="217" y="105"/>
      <point x="226" y="131"/>
      <point x="231" y="160" type="curve" smooth="yes"/>
      <point x="275" y="411" type="line" smooth="yes"/>
      <point x="276" y="413"/>
      <point x="276" y="417"/>
      <point x="276" y="418" type="curve" smooth="yes"/>
      <point x="276" y="431"/>
      <point x="256" y="439"/>
      <point x="234" y="439" type="curve" smooth="yes"/>
      <point x="214" y="439"/>
      <point x="191" y="433"/>
      <point x="188" y="416" type="curve" smooth="yes"/>
      <point x="143" y="157" type="line" smooth="yes"/>
      <point x="133" y="101"/>
      <point x="107" y="84"/>
      <point x="63" y="84" type="curve" smooth="yes"/>
      <point x="57" y="84" type="line" smooth="yes"/>
      <point x="34" y="84"/>
      <point x="24" y="61"/>
      <point x="24" y="36" type="curve" smooth="yes"/>
      <point x="24" y="15"/>
      <point x="34" y="0"/>
    </contour>
    <contour>
      <point x="883" y="0" type="line"/>
      <point x="1175" y="0" type="line" smooth="yes"/>
      <point x="1190" y="0"/>
      <point x="1198" y="21"/>
      <point x="1198" y="42" type="curve" smooth="yes"/>
      <point x="1198" y="63"/>
      <point x="1191" y="84"/>
      <point x="1175" y="84" type="curve" smooth="yes"/>
      <point x="883" y="84" type="line"/>
    </contour>
  </outline>
</glyph>
<glyph name="u10BAC.fina" format="2">
  <advance width="1130"/>
  <outline>
    <contour>
      <point x="90" y="-220" type="curve" smooth="yes"/>
      <point x="112" y="-220"/>
      <point x="134" y="-212"/>
      <point x="137" y="-197" type="curve" smooth="yes"/>
      <point x="172" y="0" type="line"/>
      <point x="855" y="0" type="line" smooth="yes"/>
      <point x="962" y="0"/>
      <point x="1017" y="60"/>
      <point x="1035" y="160" type="curve" smooth="yes"/>
      <point x="1080" y="411" type="line" smooth="yes"/>
      <point x="1081" y="413"/>
      <point x="1081" y="416"/>
      <point x="1081" y="418" type="curve" smooth="yes"/>
      <point x="1081" y="431"/>
      <point x="1061" y="439"/>
      <point x="1038" y="439" type="curve" smooth="yes"/>
      <point x="1018" y="439"/>
      <point x="996" y="433"/>
      <point x="993" y="416" type="curve" smooth="yes"/>
      <point x="947" y="157" type="line" smooth="yes"/>
      <point x="937" y="101"/>
      <point x="912" y="84"/>
      <point x="867" y="84" type="curve" smooth="yes"/>
      <point x="731" y="84" type="line"/>
      <point x="743" y="105"/>
      <point x="752" y="131"/>
      <point x="757" y="160" type="curve" smooth="yes"/>
      <point x="802" y="411" type="line" smooth="yes"/>
      <point x="803" y="416"/>
      <point x="803" y="417"/>
      <point x="803" y="418" type="curve" smooth="yes"/>
      <point x="803" y="431"/>
      <point x="782" y="439"/>
      <point x="760" y="439" type="curve" smooth="yes"/>
      <point x="740" y="439"/>
      <point x="717" y="433"/>
      <point x="714" y="416" type="curve" smooth="yes"/>
      <point x="668" y="157" type="line" smooth="yes"/>
      <point x="658" y="101"/>
      <point x="633" y="84"/>
      <point x="588" y="84" type="curve" smooth="yes"/>
      <point x="453" y="84" type="line"/>
      <point x="465" y="105"/>
      <point x="474" y="132"/>
      <point x="479" y="161" type="curve" smooth="yes"/>
      <point x="523" y="406" type="line" smooth="yes"/>
      <point x="524" y="413"/>
      <point x="524" y="417"/>
      <point x="524" y="418" type="curve" smooth="yes"/>
      <point x="524" y="431"/>
      <point x="503" y="439"/>
      <point x="481" y="439" type="curve" smooth="yes"/>
      <point x="461" y="439"/>
      <point x="439" y="433"/>
      <point x="436" y="416" type="curve" smooth="yes"/>
      <point x="390" y="157" type="line" smooth="yes"/>
      <point x="380" y="103"/>
      <point x="356" y="84"/>
      <point x="313" y="84" type="curve" smooth="yes"/>
      <point x="187" y="84" type="line"/>
      <point x="245" y="411" type="line" smooth="yes"/>
      <point x="246" y="417"/>
      <point x="246" y="418"/>
      <point x="246" y="420" type="curve" smooth="yes"/>
      <point x="246" y="432"/>
      <point x="227" y="439"/>
      <point x="207" y="439" type="curve" smooth="yes"/>
      <point x="185" y="439"/>
      <point x="161" y="433"/>
      <point x="158" y="417" type="curve" smooth="yes"/>
      <point x="50" y="-192" type="line" smooth="yes"/>
      <point x="49" y="-195"/>
      <point x="49" y="-198"/>
      <point x="49" y="-199" type="curve" smooth="yes"/>
      <point x="49" y="-213"/>
      <point x="69" y="-220"/>
    </contour>
    <contour>
      <point x="854" y="0" type="line"/>
      <point x="1146" y="0" type="line" smooth="yes"/>
      <point x="1161" y="0"/>
      <point x="1169" y="21"/>
      <point x="1169" y="42" type="curve" smooth="yes"/>
      <point x="1169" y="63"/>
      <point x="1162" y="84"/>
      <point x="1146" y="84" type="curve" smooth="yes"/>
      <point x="854" y="84" type="line"/>
    </contour>
  </outline>
</glyph>
<glyph name="u10BAD.fina" format="2">
  <advance width="601"/>
  <outline>
    <contour>
      <point x="250" y="-21" type="curve" smooth="yes"/>
      <point x="405" y="-21"/>
      <point x="552" y="28"/>
      <point x="552" y="205" type="curve" smooth="yes"/>
      <point x="552" y="274"/>
      <point x="500" y="345"/>
      <point x="381" y="347" type="curve"/>
      <point x="442" y="692" type="line" smooth="yes"/>
      <point x="444" y="704"/>
      <point x="445" y="710"/>
      <point x="445" y="712" type="curve" smooth="yes"/>
      <point x="445" y="726"/>
      <point x="426" y="732"/>
      <point x="406" y="732" type="curve" smooth="yes"/>
      <point x="383" y="732"/>
      <point x="360" y="725"/>
      <point x="357" y="709" type="curve" smooth="yes"/>
      <point x="301" y="374" type="line" smooth="yes"/>
      <point x="297" y="352"/>
      <point x="282" y="332"/>
      <point x="266" y="314" type="curve" smooth="yes"/>
      <point x="251" y="298"/>
      <point x="241" y="286"/>
      <point x="241" y="271" type="curve" smooth="yes"/>
      <point x="241" y="251"/>
      <point x="255" y="239"/>
      <point x="277" y="239" type="curve" smooth="yes"/>
      <point x="291" y="239"/>
      <point x="305" y="243"/>
      <point x="322" y="250" type="curve" smooth="yes"/>
      <point x="341" y="258"/>
      <point x="360" y="266"/>
      <point x="381" y="266" type="curve" smooth="yes"/>
      <point x="414" y="266"/>
      <point x="461" y="252"/>
      <point x="461" y="191" type="curve" smooth="yes"/>
      <point x="461" y="102"/>
      <point x="395" y="63"/>
      <point x="252" y="63" type="curve" smooth="yes"/>
      <point x="209" y="63"/>
      <point x="172" y="69"/>
      <point x="137" y="75" type="curve" smooth="yes"/>
      <point x="108" y="80"/>
      <point x="82" y="84"/>
      <point x="56" y="84" type="curve" smooth="yes"/>
      <point x="37" y="84"/>
      <point x="24" y="54"/>
      <point x="24" y="30" type="curve" smooth="yes"/>
      <point x="24" y="15"/>
      <point x="30" y="0"/>
      <point x="42" y="0" type="curve" smooth="yes"/>
      <point x="58" y="0"/>
      <point x="80" y="-3"/>
      <point x="104" y="-7" type="curve" smooth="yes"/>
      <point x="142" y="-14"/>
      <point x="190" y="-21"/>
    </contour>
    <contour>
      <point x="394" y="0" type="line"/>
      <point x="617" y="0" type="line" smooth="yes"/>
      <point x="632" y="0"/>
      <point x="641" y="21"/>
      <point x="641" y="42" type="curve" smooth="yes"/>
      <point x="641" y="63"/>
      <point x="633" y="84"/>
      <point x="617" y="84" type="curve" smooth="yes"/>
      <point x="394" y="84" type="line"/>
    </contour>
  </outline>
</glyph>
<glyph name="u10BAD.medi" format="2">
  <advance width="567"/>
  <outline>
    <contour>
      <point x="216" y="-21" type="curve" smooth="yes"/>
      <point x="371" y="-21"/>
      <point x="518" y="28"/>
      <point x="518" y="205" type="curve" smooth="yes"/>
      <point x="518" y="274"/>
      <point x="466" y="345"/>
      <point x="347" y="347" type="curve"/>
      <point x="408" y="692" type="line" smooth="yes"/>
      <point x="410" y="704"/>
      <point x="411" y="710"/>
      <point x="411" y="712" type="curve" smooth="yes"/>
      <point x="411" y="726"/>
      <point x="392" y="732"/>
      <point x="372" y="732" type="curve" smooth="yes"/>
      <point x="349" y="732"/>
      <point x="326" y="725"/>
      <point x="323" y="709" type="curve" smooth="yes"/>
      <point x="267" y="374" type="line" smooth="yes"/>
      <point x="263" y="352"/>
      <point x="248" y="332"/>
      <point x="232" y="314" type="curve" smooth="yes"/>
      <point x="217" y="298"/>
      <point x="207" y="286"/>
      <point x="207" y="271" type="curve" smooth="yes"/>
      <point x="207" y="251"/>
      <point x="221" y="239"/>
      <point x="243" y="239" type="curve" smooth="yes"/>
      <point x="257" y="239"/>
      <point x="271" y="243"/>
      <point x="288" y="250" type="curve" smooth="yes"/>
      <point x="307" y="258"/>
      <point x="326" y="266"/>
      <point x="347" y="266" type="curve" smooth="yes"/>
      <point x="380" y="266"/>
      <point x="427" y="252"/>
      <point x="427" y="191" type="curve" smooth="yes"/>
      <point x="427" y="102"/>
      <point x="361" y="63"/>
      <point x="218" y="63" type="curve" smooth="yes"/>
      <point x="175" y="63"/>
      <point x="138" y="69"/>
      <point x="103" y="75" type="curve" smooth="yes"/>
      <point x="74" y="80"/>
      <point x="48" y="84"/>
      <point x="22" y="84" type="curve" smooth="yes"/>
      <point x="3" y="84"/>
      <point x="-10" y="54"/>
      <point x="-10" y="30" type="curve" smooth="yes"/>
      <point x="-10" y="15"/>
      <point x="-4" y="0"/>
      <point x="8" y="0" type="curve" smooth="yes"/>
      <point x="24" y="0"/>
      <point x="46" y="-3"/>
      <point x="70" y="-7" type="curve" smooth="yes"/>
      <point x="108" y="-14"/>
      <point x="156" y="-21"/>
    </contour>
    <contour>
      <point x="-16" y="0" type="curve" smooth="yes"/>
      <point x="32" y="0" type="line"/>
      <point x="32" y="84" type="line"/>
      <point x="-16" y="84" type="line" smooth="yes"/>
      <point x="-32" y="84"/>
      <point x="-39" y="63"/>
      <point x="-39" y="42" type="curve" smooth="yes"/>
      <point x="-39" y="21"/>
      <point x="-31" y="0"/>
    </contour>
    <contour>
      <point x="359" y="0" type="line"/>
      <point x="582" y="0" type="line" smooth="yes"/>
      <point x="597" y="0"/>
      <point x="606" y="21"/>
      <point x="606" y="42" type="curve" smooth="yes"/>
      <point x="606" y="63"/>
      <point x="598" y="84"/>
      <point x="582" y="84" type="curve" smooth="yes"/>
      <point x="359" y="84" type="line"/>
    </contour>
  </outline>
</glyph>
<glyph name="u10BAE.fina" format="2">
  <advance width="601"/>
  <outline>
    <contour>
      <point x="235" y="-21" type="curve" smooth="yes"/>
      <point x="407" y="-21"/>
      <point x="552" y="28"/>
      <point x="552" y="205" type="curve" smooth="yes"/>
      <point x="552" y="275"/>
      <point x="506" y="347"/>
      <point x="384" y="347" type="curve" smooth="yes"/>
      <point x="332" y="347"/>
      <point x="241" y="333"/>
      <point x="241" y="271" type="curve" smooth="yes"/>
      <point x="241" y="251"/>
      <point x="255" y="239"/>
      <point x="277" y="239" type="curve" smooth="yes"/>
      <point x="291" y="239"/>
      <point x="306" y="244"/>
      <point x="321" y="250" type="curve" smooth="yes"/>
      <point x="340" y="258"/>
      <point x="360" y="266"/>
      <point x="381" y="266" type="curve" smooth="yes"/>
      <point x="414" y="266"/>
      <point x="461" y="252"/>
      <point x="461" y="191" type="curve" smooth="yes"/>
      <point x="461" y="95"/>
      <point x="385" y="63"/>
      <point x="242" y="63" type="curve" smooth="yes"/>
      <point x="200" y="63"/>
      <point x="166" y="69"/>
      <point x="134" y="75" type="curve" smooth="yes"/>
      <point x="107" y="80"/>
      <point x="83" y="84"/>
      <point x="56" y="84" type="curve" smooth="yes"/>
      <point x="37" y="84"/>
      <point x="24" y="54"/>
      <point x="24" y="30" type="curve" smooth="yes"/>
      <point x="24" y="15"/>
      <point x="30" y="0"/>
      <point x="42" y="0" type="curve" smooth="yes"/>
      <point x="55" y="0"/>
      <point x="74" y="-3"/>
      <point x="97" y="-7" type="curve" smooth="yes"/>
      <point x="134" y="-14"/>
      <point x="181" y="-21"/>
    </contour>
    <contour>
      <point x="394" y="0" type="line"/>
      <point x="617" y="0" type="line" smooth="yes"/>
      <point x="632" y="0"/>
      <point x="641" y="21"/>
      <point x="641" y="42" type="curve" smooth="yes"/>
      <point x="641" y="63"/>
      <point x="633" y="84"/>
      <point x="617" y="84" type="curve" smooth="yes"/>
      <point x="394" y="84" type="line"/>
    </contour>
  </outline>
</glyph>
<glyph name="u10BAE.init" format="2">
  <advance width="567"/>
  <outline>
    <contour>
      <point x="201" y="-21" type="curve" smooth="yes"/>
      <point x="373" y="-21"/>
      <point x="518" y="28"/>
      <point x="518" y="205" type="curve" smooth="yes"/>
      <point x="518" y="275"/>
      <point x="472" y="347"/>
      <point x="350" y="347" type="curve" smooth="yes"/>
      <point x="298" y="347"/>
      <point x="207" y="333"/>
      <point x="207" y="271" type="curve" smooth="yes"/>
      <point x="207" y="251"/>
      <point x="221" y="239"/>
      <point x="243" y="239" type="curve" smooth="yes"/>
      <point x="257" y="239"/>
      <point x="272" y="244"/>
      <point x="287" y="250" type="curve" smooth="yes"/>
      <point x="306" y="258"/>
      <point x="326" y="266"/>
      <point x="347" y="266" type="curve" smooth="yes"/>
      <point x="380" y="266"/>
      <point x="427" y="252"/>
      <point x="427" y="191" type="curve" smooth="yes"/>
      <point x="427" y="95"/>
      <point x="351" y="63"/>
      <point x="208" y="63" type="curve" smooth="yes"/>
      <point x="166" y="63"/>
      <point x="132" y="69"/>
      <point x="100" y="75" type="curve" smooth="yes"/>
      <point x="73" y="80"/>
      <point x="49" y="84"/>
      <point x="22" y="84" type="curve" smooth="yes"/>
      <point x="3" y="84"/>
      <point x="-10" y="54"/>
      <point x="-10" y="30" type="curve" smooth="yes"/>
      <point x="-10" y="15"/>
      <point x="-4" y="0"/>
      <point x="8" y="0" type="curve" smooth="yes"/>
      <point x="21" y="0"/>
      <point x="40" y="-3"/>
      <point x="63" y="-7" type="curve" smooth="yes"/>
      <point x="100" y="-14"/>
      <point x="147" y="-21"/>
    </contour>
    <contour>
      <point x="-16" y="0" type="curve" smooth="yes"/>
      <point x="32" y="0" type="line"/>
      <point x="32" y="84" type="line"/>
      <point x="-16" y="84" type="line" smooth="yes"/>
      <point x="-32" y="84"/>
      <point x="-39" y="63"/>
      <point x="-39" y="42" type="curve" smooth="yes"/>
      <point x="-39" y="21"/>
      <point x="-31" y="0"/>
    </contour>
  </outline>
</glyph>
